<svg xmlns="http://www.w3.org/2000/svg" xmlns:xlink="http://www.w3.org/1999/xlink" width="2304" zoomAndPan="magnify" viewBox="0 0 1728 863.999991" height="1152" preserveAspectRatio="xMidYMid meet" version="1.0"><defs><g/></defs><g fill="#ffffff" fill-opacity="1"><g transform="translate(88.53717, 557.945267)"><g><path d="M 187.625 -132.109375 C 260.15625 -136.546875 279.03125 -162.453125 279.03125 -196.140625 C 279.03125 -232.40625 256.078125 -254.609375 173.1875 -254.609375 L 11.84375 -254.609375 L 11.84375 -252.015625 L 17.765625 -252.015625 C 43.296875 -252.015625 51.8125 -244.609375 51.8125 -209.828125 L 51.8125 -44.78125 C 51.8125 -9.984375 43.296875 -2.59375 17.765625 -2.59375 L 11.84375 -2.59375 L 11.84375 0 L 179.84375 0 C 260.15625 0 289.390625 -24.421875 289.390625 -69.578125 C 289.390625 -105.09375 268.671875 -129.15625 187.625 -132.109375 Z M 196.140625 -199.09375 C 196.140625 -158.015625 183.1875 -132.109375 142.109375 -132.109375 L 132.859375 -132.109375 L 132.859375 -252.015625 L 136.546875 -252.015625 C 177.625 -252.015625 196.140625 -240.171875 196.140625 -199.09375 Z M 143.578125 -2.59375 L 132.859375 -2.59375 L 132.859375 -129.515625 L 142.109375 -129.515625 C 189.109375 -129.515625 206.5 -112.5 206.5 -69.578125 C 206.5 -26.28125 192.4375 -2.59375 143.578125 -2.59375 Z M 143.578125 -2.59375 "/></g></g></g><g fill="#ffffff" fill-opacity="1"><g transform="translate(394.573818, 557.945267)"><g><path d="M 217.59375 -26.28125 C 215.75 -15.90625 210.9375 -10.734375 203.90625 -10.734375 C 197.984375 -10.734375 195.765625 -15.90625 195.765625 -24.421875 L 195.765625 -101.390625 C 195.765625 -163.9375 162.09375 -176.890625 95.46875 -176.890625 C 44.03125 -176.890625 19.984375 -152.09375 19.984375 -126.1875 C 19.984375 -111.015625 30.71875 -99.171875 51.8125 -99.171875 C 73.265625 -99.171875 91.03125 -109.171875 91.03125 -131.75 C 91.03125 -160.984375 62.171875 -159.5 62.171875 -166.53125 C 62.171875 -170.234375 69.9375 -174.296875 88.4375 -174.296875 C 112.5 -174.296875 119.15625 -161.34375 119.15625 -124.34375 L 119.15625 -98.4375 L 89.921875 -94 C 32.9375 -85.484375 9.625 -69.203125 9.625 -37.75 C 9.625 -11.84375 25.53125 4.4375 58.09375 4.4375 C 93.25 4.4375 113.234375 -8.140625 119.53125 -39.96875 C 122.484375 -7.40625 137.65625 4.4375 169.125 4.4375 C 202.046875 4.4375 217.234375 -5.546875 220.921875 -25.53125 Z M 95.84375 -11.84375 C 85.109375 -11.84375 82.890625 -25.53125 82.890625 -47 C 82.890625 -69.9375 86.96875 -90.296875 110.65625 -94.359375 L 119.15625 -95.84375 L 119.15625 -58.46875 C 119.15625 -33.671875 109.53125 -11.84375 95.84375 -11.84375 Z M 95.84375 -11.84375 "/></g></g></g><g fill="#ffffff" fill-opacity="1"><g transform="translate(617.347777, 557.945267)"><g><path d="M 247.9375 -2.59375 C 236.46875 -2.59375 227.953125 -7.03125 227.953125 -27.390625 L 227.953125 -112.5 C 227.953125 -156.53125 205.390625 -176.890625 168.375 -176.890625 C 131.75 -176.890625 109.90625 -161.71875 103.984375 -130.625 L 103.984375 -179.109375 L 102.5 -179.109375 C 84.375 -160.984375 54.765625 -149.875 5.1875 -148.390625 L 5.1875 -145.796875 C 23.6875 -146.546875 27.390625 -138.03125 27.390625 -114.34375 L 27.390625 -27.390625 C 27.390625 -7.03125 18.875 -2.59375 7.40625 -2.59375 L 4.4375 -2.59375 L 4.4375 0 L 123.234375 0 L 123.234375 -2.59375 L 120.265625 -2.59375 C 109.53125 -2.59375 103.984375 -7.03125 103.984375 -27.390625 L 103.984375 -111.390625 C 103.984375 -139.140625 118.421875 -164.671875 135.078125 -164.671875 C 147.65625 -164.671875 151.359375 -155.0625 151.359375 -136.1875 L 151.359375 -27.390625 C 151.359375 -7.03125 145.796875 -2.59375 135.078125 -2.59375 L 132.109375 -2.59375 L 132.109375 0 L 250.90625 0 L 250.90625 -2.59375 Z M 247.9375 -2.59375 "/></g></g></g><g fill="#ffffff" fill-opacity="1"><g transform="translate(871.576482, 557.945267)"><g><path d="M 81.78125 3.328125 C 101.03125 3.328125 110.65625 -4.4375 110.65625 -17.765625 C 110.65625 -36.265625 97.703125 -42.921875 65.125 -53.28125 C 30.34375 -65.125 12.578125 -85.109375 12.578125 -121.375 C 12.578125 -158.390625 42.921875 -176.890625 86.59375 -176.890625 C 108.421875 -176.890625 119.53125 -168.015625 135.4375 -168.015625 C 141.734375 -168.015625 144.6875 -170.59375 146.546875 -175.40625 L 148.390625 -175.40625 L 152.828125 -109.171875 L 150.25 -109.171875 C 136.546875 -145.796875 116.9375 -173.921875 86.96875 -173.921875 C 74.015625 -173.921875 65.5 -165.421875 65.5 -153.203125 C 65.5 -130.625 78.078125 -124.34375 104.359375 -115.09375 C 140.25 -103.25 162.453125 -86.96875 162.453125 -50.703125 C 162.453125 -9.625 130.625 5.921875 81.78125 5.921875 C 58.09375 5.921875 46.625 -3.703125 31.828125 -3.703125 C 25.171875 -3.703125 20.71875 0 19.25 4.4375 L 17.390625 4.4375 L 12.953125 -62.171875 L 15.546875 -62.171875 C 37.75 -12.21875 50.703125 3.328125 81.78125 3.328125 Z M 81.78125 3.328125 "/></g></g></g><g fill="#ffffff" fill-opacity="1"><g transform="translate(1045.873018, 557.945267)"><g><path d="M 63.28125 -186.515625 C 85.859375 -186.515625 104.359375 -205.015625 104.359375 -227.953125 C 104.359375 -250.53125 85.859375 -269.03125 63.28125 -269.03125 C 40.34375 -269.03125 21.828125 -250.53125 21.828125 -227.953125 C 21.828125 -205.015625 40.34375 -186.515625 63.28125 -186.515625 Z M 123.96875 -2.59375 C 112.5 -2.59375 103.984375 -7.03125 103.984375 -27.390625 L 103.984375 -179.109375 L 102.5 -179.109375 C 84.375 -160.984375 54.765625 -149.875 5.1875 -148.390625 L 5.1875 -145.796875 C 23.6875 -146.546875 27.390625 -138.03125 27.390625 -114.34375 L 27.390625 -27.390625 C 27.390625 -7.03125 18.875 -2.59375 7.40625 -2.59375 L 4.4375 -2.59375 L 4.4375 0 L 126.9375 0 L 126.9375 -2.59375 Z M 123.96875 -2.59375 "/></g></g></g><g fill="#ffffff" fill-opacity="1"><g transform="translate(1176.132903, 557.945267)"><g/></g></g><g fill="#ffffff" fill-opacity="1"><g transform="translate(1264.946432, 557.945267)"><g><path d="M 184.296875 -37.375 C 184.296875 -12.953125 164.671875 2.59375 128.046875 2.59375 C 88.8125 2.59375 59.578125 -25.171875 32.5625 -105.46875 L 30.34375 -105.46875 L 23.6875 1.84375 L 25.90625 1.84375 C 28.125 -5.921875 34.046875 -7.03125 39.96875 -7.03125 C 56.625 -7.03125 86.59375 5.921875 127.671875 5.921875 C 195.390625 5.921875 234.25 -25.53125 234.25 -73.265625 C 234.25 -124.71875 201.3125 -144.6875 155.0625 -160.234375 C 96.21875 -175.78125 74.375 -191.328125 74.375 -221.671875 C 74.375 -244.234375 88.8125 -257.1875 122.125 -257.1875 C 163.203125 -257.1875 186.515625 -231.65625 212.046875 -157.640625 L 214.265625 -157.640625 L 221.296875 -256.453125 L 219.078125 -256.453125 C 216.859375 -248.3125 209.453125 -247.203125 203.53125 -247.203125 C 186.140625 -247.203125 158.75 -260.53125 122.125 -260.53125 C 69.9375 -260.53125 23.6875 -236.46875 23.6875 -186.515625 C 23.6875 -143.953125 41.8125 -119.15625 102.140625 -97.703125 C 147.65625 -82.890625 184.296875 -73.265625 184.296875 -37.375 Z M 184.296875 -37.375 "/></g></g></g><g fill="#ffffff" fill-opacity="1"><g transform="translate(1516.214682, 557.945267)"><g><path d="M 61.796875 5.921875 C 83.640625 5.921875 101.03125 -11.84375 101.03125 -33.3125 C 101.03125 -55.140625 83.640625 -72.53125 61.796875 -72.53125 C 39.96875 -72.53125 22.203125 -55.140625 22.203125 -33.3125 C 22.203125 -11.84375 39.96875 5.921875 61.796875 5.921875 Z M 61.796875 5.921875 "/></g></g></g></svg>