<svg xmlns="http://www.w3.org/2000/svg" xmlns:xlink="http://www.w3.org/1999/xlink" width="500" zoomAndPan="magnify" viewBox="0 0 375 374.999991" height="500" preserveAspectRatio="xMidYMid meet" version="1.0"><defs><g/><linearGradient x1="0" gradientTransform="matrix(0.75, 0, 0, 0.75, 0.0000045, 0)" y1="250" x2="499.999979" gradientUnits="userSpaceOnUse" y2="250" id="d1be1293a3"><stop stop-opacity="1" stop-color="rgb(100%, 19.198608%, 19.198608%)" offset="0"/><stop stop-opacity="1" stop-color="rgb(100%, 19.345093%, 19.241333%)" offset="0.0078125"/><stop stop-opacity="1" stop-color="rgb(100%, 19.639587%, 19.328308%)" offset="0.015625"/><stop stop-opacity="1" stop-color="rgb(100%, 19.934082%, 19.413757%)" offset="0.0234375"/><stop stop-opacity="1" stop-color="rgb(100%, 20.230103%, 19.499207%)" offset="0.03125"/><stop stop-opacity="1" stop-color="rgb(100%, 20.524597%, 19.586182%)" offset="0.0390625"/><stop stop-opacity="1" stop-color="rgb(100%, 20.819092%, 19.671631%)" offset="0.046875"/><stop stop-opacity="1" stop-color="rgb(100%, 21.113586%, 19.75708%)" offset="0.0546875"/><stop stop-opacity="1" stop-color="rgb(100%, 21.408081%, 19.844055%)" offset="0.0625"/><stop stop-opacity="1" stop-color="rgb(100%, 21.702576%, 19.929504%)" offset="0.0703125"/><stop stop-opacity="1" stop-color="rgb(100%, 21.99707%, 20.014954%)" offset="0.078125"/><stop stop-opacity="1" stop-color="rgb(100%, 22.291565%, 20.101929%)" offset="0.0859375"/><stop stop-opacity="1" stop-color="rgb(100%, 22.58606%, 20.187378%)" offset="0.09375"/><stop stop-opacity="1" stop-color="rgb(100%, 22.880554%, 20.272827%)" offset="0.101562"/><stop stop-opacity="1" stop-color="rgb(100%, 23.175049%, 20.359802%)" offset="0.109375"/><stop stop-opacity="1" stop-color="rgb(100%, 23.469543%, 20.445251%)" offset="0.117188"/><stop stop-opacity="1" stop-color="rgb(100%, 23.764038%, 20.530701%)" offset="0.125"/><stop stop-opacity="1" stop-color="rgb(100%, 24.058533%, 20.617676%)" offset="0.132812"/><stop stop-opacity="1" stop-color="rgb(100%, 24.353027%, 20.703125%)" offset="0.140625"/><stop stop-opacity="1" stop-color="rgb(100%, 24.647522%, 20.788574%)" offset="0.148437"/><stop stop-opacity="1" stop-color="rgb(100%, 24.942017%, 20.874023%)" offset="0.15625"/><stop stop-opacity="1" stop-color="rgb(100%, 25.236511%, 20.960999%)" offset="0.164062"/><stop stop-opacity="1" stop-color="rgb(100%, 25.531006%, 21.046448%)" offset="0.171875"/><stop stop-opacity="1" stop-color="rgb(100%, 25.8255%, 21.131897%)" offset="0.179687"/><stop stop-opacity="1" stop-color="rgb(100%, 26.119995%, 21.218872%)" offset="0.1875"/><stop stop-opacity="1" stop-color="rgb(100%, 26.41449%, 21.304321%)" offset="0.195312"/><stop stop-opacity="1" stop-color="rgb(100%, 26.708984%, 21.389771%)" offset="0.203125"/><stop stop-opacity="1" stop-color="rgb(100%, 27.003479%, 21.476746%)" offset="0.210938"/><stop stop-opacity="1" stop-color="rgb(100%, 27.297974%, 21.562195%)" offset="0.21875"/><stop stop-opacity="1" stop-color="rgb(100%, 27.592468%, 21.647644%)" offset="0.226562"/><stop stop-opacity="1" stop-color="rgb(100%, 27.886963%, 21.734619%)" offset="0.234375"/><stop stop-opacity="1" stop-color="rgb(100%, 28.181458%, 21.820068%)" offset="0.242188"/><stop stop-opacity="1" stop-color="rgb(100%, 28.475952%, 21.905518%)" offset="0.25"/><stop stop-opacity="1" stop-color="rgb(100%, 28.770447%, 21.992493%)" offset="0.257812"/><stop stop-opacity="1" stop-color="rgb(100%, 29.064941%, 22.077942%)" offset="0.265625"/><stop stop-opacity="1" stop-color="rgb(100%, 29.359436%, 22.163391%)" offset="0.273437"/><stop stop-opacity="1" stop-color="rgb(100%, 29.653931%, 22.250366%)" offset="0.28125"/><stop stop-opacity="1" stop-color="rgb(100%, 29.948425%, 22.335815%)" offset="0.289062"/><stop stop-opacity="1" stop-color="rgb(100%, 30.24292%, 22.421265%)" offset="0.296875"/><stop stop-opacity="1" stop-color="rgb(100%, 30.537415%, 22.50824%)" offset="0.304687"/><stop stop-opacity="1" stop-color="rgb(100%, 30.831909%, 22.593689%)" offset="0.3125"/><stop stop-opacity="1" stop-color="rgb(100%, 31.126404%, 22.679138%)" offset="0.320312"/><stop stop-opacity="1" stop-color="rgb(100%, 31.420898%, 22.766113%)" offset="0.328125"/><stop stop-opacity="1" stop-color="rgb(100%, 31.715393%, 22.851562%)" offset="0.335937"/><stop stop-opacity="1" stop-color="rgb(100%, 32.009888%, 22.937012%)" offset="0.34375"/><stop stop-opacity="1" stop-color="rgb(100%, 32.304382%, 23.022461%)" offset="0.351562"/><stop stop-opacity="1" stop-color="rgb(100%, 32.600403%, 23.109436%)" offset="0.359375"/><stop stop-opacity="1" stop-color="rgb(100%, 32.894897%, 23.194885%)" offset="0.367187"/><stop stop-opacity="1" stop-color="rgb(100%, 33.189392%, 23.280334%)" offset="0.375"/><stop stop-opacity="1" stop-color="rgb(100%, 33.483887%, 23.36731%)" offset="0.382812"/><stop stop-opacity="1" stop-color="rgb(100%, 33.778381%, 23.452759%)" offset="0.390625"/><stop stop-opacity="1" stop-color="rgb(100%, 34.072876%, 23.538208%)" offset="0.398438"/><stop stop-opacity="1" stop-color="rgb(100%, 34.367371%, 23.625183%)" offset="0.40625"/><stop stop-opacity="1" stop-color="rgb(100%, 34.661865%, 23.710632%)" offset="0.414062"/><stop stop-opacity="1" stop-color="rgb(100%, 34.95636%, 23.796082%)" offset="0.421875"/><stop stop-opacity="1" stop-color="rgb(100%, 35.250854%, 23.883057%)" offset="0.429688"/><stop stop-opacity="1" stop-color="rgb(100%, 35.545349%, 23.968506%)" offset="0.4375"/><stop stop-opacity="1" stop-color="rgb(100%, 35.839844%, 24.053955%)" offset="0.445312"/><stop stop-opacity="1" stop-color="rgb(100%, 36.134338%, 24.14093%)" offset="0.453125"/><stop stop-opacity="1" stop-color="rgb(100%, 36.428833%, 24.226379%)" offset="0.460938"/><stop stop-opacity="1" stop-color="rgb(100%, 36.723328%, 24.311829%)" offset="0.46875"/><stop stop-opacity="1" stop-color="rgb(100%, 37.017822%, 24.398804%)" offset="0.476562"/><stop stop-opacity="1" stop-color="rgb(100%, 37.312317%, 24.484253%)" offset="0.484375"/><stop stop-opacity="1" stop-color="rgb(100%, 37.606812%, 24.569702%)" offset="0.492188"/><stop stop-opacity="1" stop-color="rgb(100%, 37.901306%, 24.656677%)" offset="0.5"/><stop stop-opacity="1" stop-color="rgb(100%, 38.195801%, 24.742126%)" offset="0.507812"/><stop stop-opacity="1" stop-color="rgb(100%, 38.490295%, 24.827576%)" offset="0.515625"/><stop stop-opacity="1" stop-color="rgb(100%, 38.78479%, 24.914551%)" offset="0.523437"/><stop stop-opacity="1" stop-color="rgb(100%, 39.079285%, 25%)" offset="0.53125"/><stop stop-opacity="1" stop-color="rgb(100%, 39.373779%, 25.085449%)" offset="0.539062"/><stop stop-opacity="1" stop-color="rgb(100%, 39.668274%, 25.170898%)" offset="0.546875"/><stop stop-opacity="1" stop-color="rgb(100%, 39.962769%, 25.257874%)" offset="0.554687"/><stop stop-opacity="1" stop-color="rgb(100%, 40.257263%, 25.343323%)" offset="0.5625"/><stop stop-opacity="1" stop-color="rgb(100%, 40.551758%, 25.428772%)" offset="0.570312"/><stop stop-opacity="1" stop-color="rgb(100%, 40.846252%, 25.515747%)" offset="0.578125"/><stop stop-opacity="1" stop-color="rgb(100%, 41.140747%, 25.601196%)" offset="0.585937"/><stop stop-opacity="1" stop-color="rgb(100%, 41.435242%, 25.686646%)" offset="0.59375"/><stop stop-opacity="1" stop-color="rgb(100%, 41.729736%, 25.773621%)" offset="0.601562"/><stop stop-opacity="1" stop-color="rgb(100%, 42.024231%, 25.85907%)" offset="0.609375"/><stop stop-opacity="1" stop-color="rgb(100%, 42.318726%, 25.944519%)" offset="0.617187"/><stop stop-opacity="1" stop-color="rgb(100%, 42.61322%, 26.031494%)" offset="0.625"/><stop stop-opacity="1" stop-color="rgb(100%, 42.907715%, 26.116943%)" offset="0.632812"/><stop stop-opacity="1" stop-color="rgb(100%, 43.202209%, 26.202393%)" offset="0.640625"/><stop stop-opacity="1" stop-color="rgb(100%, 43.496704%, 26.289368%)" offset="0.648437"/><stop stop-opacity="1" stop-color="rgb(100%, 43.791199%, 26.374817%)" offset="0.65625"/><stop stop-opacity="1" stop-color="rgb(100%, 44.085693%, 26.460266%)" offset="0.664062"/><stop stop-opacity="1" stop-color="rgb(100%, 44.380188%, 26.547241%)" offset="0.671875"/><stop stop-opacity="1" stop-color="rgb(100%, 44.674683%, 26.63269%)" offset="0.679687"/><stop stop-opacity="1" stop-color="rgb(100%, 44.970703%, 26.71814%)" offset="0.6875"/><stop stop-opacity="1" stop-color="rgb(100%, 45.265198%, 26.805115%)" offset="0.695312"/><stop stop-opacity="1" stop-color="rgb(100%, 45.559692%, 26.890564%)" offset="0.703125"/><stop stop-opacity="1" stop-color="rgb(100%, 45.854187%, 26.976013%)" offset="0.710937"/><stop stop-opacity="1" stop-color="rgb(100%, 46.148682%, 27.062988%)" offset="0.71875"/><stop stop-opacity="1" stop-color="rgb(100%, 46.443176%, 27.148438%)" offset="0.726562"/><stop stop-opacity="1" stop-color="rgb(100%, 46.737671%, 27.233887%)" offset="0.734375"/><stop stop-opacity="1" stop-color="rgb(100%, 47.032166%, 27.319336%)" offset="0.742187"/><stop stop-opacity="1" stop-color="rgb(100%, 47.32666%, 27.406311%)" offset="0.75"/><stop stop-opacity="1" stop-color="rgb(100%, 47.621155%, 27.49176%)" offset="0.757812"/><stop stop-opacity="1" stop-color="rgb(100%, 47.915649%, 27.577209%)" offset="0.765625"/><stop stop-opacity="1" stop-color="rgb(100%, 48.210144%, 27.664185%)" offset="0.773438"/><stop stop-opacity="1" stop-color="rgb(100%, 48.504639%, 27.749634%)" offset="0.78125"/><stop stop-opacity="1" stop-color="rgb(100%, 48.799133%, 27.835083%)" offset="0.789062"/><stop stop-opacity="1" stop-color="rgb(100%, 49.093628%, 27.922058%)" offset="0.796875"/><stop stop-opacity="1" stop-color="rgb(100%, 49.388123%, 28.007507%)" offset="0.804688"/><stop stop-opacity="1" stop-color="rgb(100%, 49.682617%, 28.092957%)" offset="0.8125"/><stop stop-opacity="1" stop-color="rgb(100%, 49.977112%, 28.179932%)" offset="0.820312"/><stop stop-opacity="1" stop-color="rgb(100%, 50.271606%, 28.265381%)" offset="0.828125"/><stop stop-opacity="1" stop-color="rgb(100%, 50.566101%, 28.35083%)" offset="0.835938"/><stop stop-opacity="1" stop-color="rgb(100%, 50.860596%, 28.437805%)" offset="0.84375"/><stop stop-opacity="1" stop-color="rgb(100%, 51.15509%, 28.523254%)" offset="0.851562"/><stop stop-opacity="1" stop-color="rgb(100%, 51.449585%, 28.608704%)" offset="0.859375"/><stop stop-opacity="1" stop-color="rgb(100%, 51.74408%, 28.695679%)" offset="0.867188"/><stop stop-opacity="1" stop-color="rgb(100%, 52.038574%, 28.781128%)" offset="0.875"/><stop stop-opacity="1" stop-color="rgb(100%, 52.333069%, 28.866577%)" offset="0.882812"/><stop stop-opacity="1" stop-color="rgb(100%, 52.627563%, 28.953552%)" offset="0.890625"/><stop stop-opacity="1" stop-color="rgb(100%, 52.922058%, 29.039001%)" offset="0.898438"/><stop stop-opacity="1" stop-color="rgb(100%, 53.216553%, 29.124451%)" offset="0.90625"/><stop stop-opacity="1" stop-color="rgb(100%, 53.511047%, 29.211426%)" offset="0.914062"/><stop stop-opacity="1" stop-color="rgb(100%, 53.805542%, 29.296875%)" offset="0.921875"/><stop stop-opacity="1" stop-color="rgb(100%, 54.100037%, 29.382324%)" offset="0.929688"/><stop stop-opacity="1" stop-color="rgb(100%, 54.394531%, 29.467773%)" offset="0.9375"/><stop stop-opacity="1" stop-color="rgb(100%, 54.689026%, 29.554749%)" offset="0.945312"/><stop stop-opacity="1" stop-color="rgb(100%, 54.983521%, 29.640198%)" offset="0.953125"/><stop stop-opacity="1" stop-color="rgb(100%, 55.278015%, 29.725647%)" offset="0.960938"/><stop stop-opacity="1" stop-color="rgb(100%, 55.57251%, 29.812622%)" offset="0.96875"/><stop stop-opacity="1" stop-color="rgb(100%, 55.867004%, 29.898071%)" offset="0.976562"/><stop stop-opacity="1" stop-color="rgb(100%, 56.161499%, 29.983521%)" offset="0.984375"/><stop stop-opacity="1" stop-color="rgb(100%, 56.455994%, 30.070496%)" offset="0.992188"/><stop stop-opacity="1" stop-color="rgb(100%, 56.750488%, 30.155945%)" offset="1"/></linearGradient><clipPath id="8022088553"><path d="M 153 12.828125 L 197 12.828125 L 197 57 L 153 57 Z M 153 12.828125 " clip-rule="nonzero"/></clipPath><clipPath id="60ee82a850"><path d="M 223 12.828125 L 331 12.828125 L 331 20 L 223 20 Z M 223 12.828125 " clip-rule="nonzero"/></clipPath><clipPath id="0189cf9005"><path d="M 223 19 L 331 19 L 331 87 L 223 87 Z M 223 19 " clip-rule="nonzero"/></clipPath><clipPath id="2594b9b007"><path d="M 43.75 295 L 70 295 L 70 300.078125 L 43.75 300.078125 Z M 43.75 295 " clip-rule="nonzero"/></clipPath></defs><rect x="-37.5" width="450" fill="#ffffff" y="-37.499999" height="449.999989" fill-opacity="1"/><rect x="-37.5" fill="url(#d1be1293a3)" width="450" y="-37.499999" height="449.999989"/><path fill="#fda4ff" d="M 142.035156 62.882812 C 137.925781 64.085938 133.628906 61.734375 132.433594 57.632812 C 131.242188 53.53125 133.605469 49.230469 137.710938 48.027344 C 141.820312 46.824219 146.117188 49.171875 147.3125 53.277344 C 148.507812 57.378906 146.144531 61.679688 142.035156 62.882812 Z M 156.851562 53.679688 L 155.136719 47.789062 L 151.460938 48.863281 C 150.75 47.609375 149.847656 46.503906 148.804688 45.566406 L 150.652344 42.207031 L 145.269531 39.265625 L 143.421875 42.621094 C 142.070312 42.25 140.648438 42.089844 139.207031 42.167969 L 138.140625 38.496094 L 132.238281 40.222656 L 133.308594 43.894531 C 132.050781 44.609375 130.941406 45.511719 130 46.554688 L 126.640625 44.71875 L 123.683594 50.105469 L 127.039062 51.9375 C 126.664062 53.292969 126.5 54.710938 126.574219 56.152344 L 122.828125 57.421875 L 124.609375 63.121094 L 128.289062 62.042969 C 129 63.296875 129.898438 64.40625 130.941406 65.34375 L 129.097656 68.699219 L 134.480469 71.644531 L 136.324219 68.285156 C 137.675781 68.660156 139.097656 68.820312 140.539062 68.742188 L 141.609375 72.414062 L 147.507812 70.6875 L 146.441406 67.015625 C 147.695312 66.300781 148.808594 65.398438 149.75 64.355469 L 153.105469 66.191406 L 156.0625 60.804688 L 152.707031 58.96875 C 153.085938 57.617188 153.246094 56.195312 153.175781 54.757812 L 156.851562 53.679688 " fill-opacity="1" fill-rule="nonzero"/><g clip-path="url(#8022088553)"><path fill="#fda4ff" d="M 178.136719 43.933594 C 172.910156 45.460938 167.441406 42.472656 165.921875 37.253906 C 164.402344 32.035156 167.410156 26.5625 172.636719 25.03125 C 177.863281 23.5 183.335938 26.492188 184.851562 31.707031 C 186.371094 36.929688 183.367188 42.398438 178.136719 43.933594 Z M 196.988281 32.222656 L 194.808594 24.730469 L 190.128906 26.097656 C 189.226562 24.503906 188.078125 23.089844 186.753906 21.898438 L 189.101562 17.625 L 182.25 13.882812 L 179.902344 18.152344 C 178.183594 17.679688 176.375 17.476562 174.539062 17.574219 L 173.179688 12.90625 L 165.675781 15.101562 L 167.035156 19.773438 C 165.433594 20.679688 164.019531 21.828125 162.824219 23.15625 L 158.550781 20.820312 L 154.789062 27.675781 L 159.058594 30.011719 C 158.582031 31.730469 158.371094 33.535156 158.464844 35.371094 L 153.699219 36.984375 L 155.96875 44.234375 L 160.644531 42.867188 C 161.550781 44.460938 162.695312 45.871094 164.019531 47.0625 L 161.671875 51.335938 L 168.523438 55.082031 L 170.871094 50.808594 C 172.59375 51.28125 174.402344 51.484375 176.238281 51.386719 L 177.59375 56.058594 L 185.101562 53.859375 L 183.742188 49.191406 C 185.339844 48.28125 186.753906 47.132812 187.953125 45.804688 L 192.222656 48.140625 L 195.988281 41.289062 L 191.714844 38.953125 C 192.195312 37.234375 192.40625 35.425781 192.308594 33.59375 L 196.988281 32.222656 " fill-opacity="1" fill-rule="nonzero"/></g><g clip-path="url(#60ee82a850)"><path fill="#000000" d="M 223.976562 19.21875 L 330.316406 19.21875 L 330.316406 13.5625 L 223.976562 13.5625 Z M 330.664062 19.914062 L 223.628906 19.914062 C 223.441406 19.914062 223.285156 19.757812 223.285156 19.570312 L 223.285156 13.214844 C 223.285156 13.023438 223.441406 12.871094 223.628906 12.871094 L 330.664062 12.871094 C 330.851562 12.871094 331.007812 13.023438 331.007812 13.214844 L 331.007812 19.570312 C 331.007812 19.757812 330.851562 19.914062 330.664062 19.914062 " fill-opacity="1" fill-rule="nonzero"/></g><g clip-path="url(#0189cf9005)"><path fill="#000000" d="M 223.976562 86.050781 L 330.316406 86.050781 L 330.316406 19.914062 L 223.976562 19.914062 Z M 330.664062 86.742188 L 223.628906 86.742188 C 223.441406 86.742188 223.285156 86.585938 223.285156 86.394531 L 223.285156 19.570312 C 223.285156 19.375 223.441406 19.21875 223.628906 19.21875 L 330.664062 19.21875 C 330.851562 19.21875 331.007812 19.375 331.007812 19.570312 L 331.007812 86.394531 C 331.007812 86.585938 330.851562 86.742188 330.664062 86.742188 " fill-opacity="1" fill-rule="nonzero"/></g><path fill="#000000" d="M 227.324219 15.269531 C 226.648438 15.269531 226.105469 15.804688 226.105469 16.460938 C 226.105469 17.121094 226.648438 17.65625 227.324219 17.65625 C 227.996094 17.65625 228.542969 17.121094 228.542969 16.460938 C 228.542969 15.804688 227.996094 15.269531 227.324219 15.269531 Z M 227.324219 18.347656 C 226.269531 18.347656 225.410156 17.5 225.410156 16.460938 C 225.410156 15.421875 226.269531 14.578125 227.324219 14.578125 C 228.375 14.578125 229.234375 15.421875 229.234375 16.460938 C 229.234375 17.5 228.375 18.347656 227.324219 18.347656 " fill-opacity="1" fill-rule="nonzero"/><path fill="#000000" d="M 232.761719 15.269531 C 232.089844 15.269531 231.542969 15.804688 231.542969 16.460938 C 231.542969 17.121094 232.089844 17.65625 232.761719 17.65625 C 233.433594 17.65625 233.980469 17.121094 233.980469 16.460938 C 233.980469 15.804688 233.433594 15.269531 232.761719 15.269531 Z M 232.761719 18.347656 C 231.707031 18.347656 230.851562 17.5 230.851562 16.460938 C 230.851562 15.421875 231.707031 14.578125 232.761719 14.578125 C 233.816406 14.578125 234.671875 15.421875 234.671875 16.460938 C 234.671875 17.5 233.816406 18.347656 232.761719 18.347656 " fill-opacity="1" fill-rule="nonzero"/><path fill="#000000" d="M 238.199219 15.269531 C 237.527344 15.269531 236.980469 15.804688 236.980469 16.460938 C 236.980469 17.121094 237.527344 17.65625 238.199219 17.65625 C 238.871094 17.65625 239.417969 17.121094 239.417969 16.460938 C 239.417969 15.804688 238.871094 15.269531 238.199219 15.269531 Z M 238.199219 18.347656 C 237.148438 18.347656 236.289062 17.5 236.289062 16.460938 C 236.289062 15.421875 237.148438 14.578125 238.199219 14.578125 C 239.257812 14.578125 240.113281 15.421875 240.113281 16.460938 C 240.113281 17.5 239.257812 18.347656 238.199219 18.347656 " fill-opacity="1" fill-rule="nonzero"/><path fill="#fed101" d="M 285.269531 71.101562 L 289.480469 86.074219 L 315.765625 86.078125 L 312.609375 75.625 L 312.613281 75.625 L 305.171875 62.15625 L 285.269531 71.101562 " fill-opacity="1" fill-rule="nonzero"/><path fill="#000000" d="M 315.765625 86.742188 C 315.617188 86.742188 315.476562 86.644531 315.433594 86.488281 C 315.40625 86.394531 312.703125 76.929688 311.742188 74.757812 C 310.324219 71.558594 304.929688 62.425781 304.871094 62.332031 C 304.777344 62.167969 304.832031 61.953125 304.996094 61.859375 C 305.160156 61.761719 305.371094 61.816406 305.46875 61.980469 C 305.691406 62.355469 310.941406 71.242188 312.375 74.480469 C 313.355469 76.691406 315.988281 85.910156 316.101562 86.300781 C 316.152344 86.484375 316.046875 86.675781 315.863281 86.730469 C 315.832031 86.738281 315.796875 86.742188 315.765625 86.742188 " fill-opacity="1" fill-rule="nonzero"/><path fill="#fed101" d="M 304.679688 86.078125 L 297.589844 65.925781 L 277.636719 73.730469 L 277.714844 86.078125 L 304.679688 86.078125 " fill-opacity="1" fill-rule="nonzero"/><path fill="#020202" d="M 277.636719 79.839844 L 309.445312 69.597656 L 305.335938 62.359375 L 275.847656 74.324219 L 277.636719 79.839844 " fill-opacity="1" fill-rule="nonzero"/><path fill="#8c7bff" d="M 314.140625 29.722656 L 232.75 30.101562 C 228.1875 30.121094 224.5 33.839844 224.515625 38.40625 C 224.539062 42.972656 228.253906 46.65625 232.820312 46.636719 L 253.863281 46.539062 L 274.636719 79.019531 L 308.414062 64.925781 L 297.707031 46.332031 L 314.207031 46.257812 C 318.773438 46.234375 322.460938 42.519531 322.441406 37.953125 C 322.421875 33.386719 318.707031 29.703125 314.140625 29.722656 " fill-opacity="1" fill-rule="nonzero"/><path fill="#000000" d="M 256.261719 57.125 L 261.710938 57.125 L 261.710938 27.046875 L 257.347656 22.648438 L 256.261719 57.125 " fill-opacity="1" fill-rule="nonzero"/><path fill="#955b50" d="M 271.847656 32.949219 L 268.261719 38.824219 L 262.160156 29.277344 L 267.367188 25.945312 L 271.847656 32.949219 " fill-opacity="1" fill-rule="nonzero"/><path fill="#000000" d="M 268.628906 27.921875 L 267.367188 25.945312 L 262.160156 29.277344 L 264.945312 33.632812 C 265.476562 33.429688 266.488281 32.945312 267.335938 31.90625 C 268.664062 30.273438 268.652344 28.425781 268.628906 27.921875 " fill-opacity="1" fill-rule="nonzero"/><path fill="#955b50" d="M 267.773438 22.964844 C 269.460938 25.605469 268.863281 29.496094 266.175781 31.066406 C 263.722656 32.496094 260.527344 31.539062 259.175781 28.710938 C 257.921875 26.074219 258.476562 22.78125 260.699219 21.253906 C 263.042969 19.644531 266.082031 20.320312 267.773438 22.964844 " fill-opacity="1" fill-rule="nonzero"/><path fill="#ffffff" d="M 266.148438 27.390625 C 265.980469 28.019531 265.621094 28.601562 265.070312 29.039062 C 263.84375 30.011719 262.117188 29.914062 261.003906 28.886719 L 266.148438 27.390625 " fill-opacity="1" fill-rule="nonzero"/><path fill="#000000" d="M 262.863281 21.589844 C 262.863281 21.589844 254.886719 17.289062 258.59375 45.652344 L 260.246094 57.253906 L 248.933594 57.253906 C 248.933594 57.253906 254.792969 31.929688 255.21875 29.824219 C 256.429688 23.84375 257.066406 16.246094 262.441406 17.472656 L 262.863281 21.589844 " fill-opacity="1" fill-rule="nonzero"/><path fill="#000000" d="M 267.964844 57.253906 L 278.882812 57.253906 C 278.882812 57.253906 272.597656 27.355469 272.175781 24.933594 C 271.761719 22.582031 270.554688 20.164062 268.65625 18.621094 C 267.601562 17.765625 265.132812 16.023438 262.441406 17.472656 L 262.859375 21.589844 C 262.859375 21.589844 264.648438 20.496094 266.386719 22.085938 C 268.394531 24.742188 268.109375 28.757812 268.109375 28.757812 L 267.964844 57.253906 " fill-opacity="1" fill-rule="nonzero"/><path fill="#000000" d="M 271.746094 23.261719 L 274.339844 29.910156 L 272.386719 29.941406 L 271.746094 23.261719 " fill-opacity="1" fill-rule="nonzero"/><path fill="#ffffff" d="M 277.636719 204.050781 L 59.546875 204.050781 L 59.546875 57.253906 L 277.636719 57.253906 L 277.636719 204.050781 " fill-opacity="1" fill-rule="nonzero"/><path fill="#000000" d="M 59.894531 203.703125 L 277.292969 203.703125 L 277.292969 57.601562 L 59.894531 57.601562 Z M 277.636719 204.398438 L 59.546875 204.398438 C 59.355469 204.398438 59.199219 204.242188 59.199219 204.050781 L 59.199219 57.253906 C 59.199219 57.0625 59.355469 56.90625 59.546875 56.90625 L 277.636719 56.90625 C 277.832031 56.90625 277.980469 57.0625 277.980469 57.253906 L 277.980469 204.050781 C 277.980469 204.242188 277.832031 204.398438 277.636719 204.398438 " fill-opacity="1" fill-rule="nonzero"/><path fill="#ffffff" d="M 67.976562 65.804688 L 67.976562 195.5 L 268.859375 195.5 L 268.859375 65.804688 L 67.976562 65.804688 " fill-opacity="1" fill-rule="nonzero"/><path fill="#000000" d="M 68.324219 195.15625 L 268.515625 195.15625 L 268.515625 66.148438 L 68.324219 66.148438 Z M 268.859375 195.847656 L 67.976562 195.847656 C 67.785156 195.847656 67.632812 195.691406 67.632812 195.5 L 67.632812 65.800781 C 67.632812 65.609375 67.785156 65.457031 67.976562 65.457031 L 268.859375 65.457031 C 269.050781 65.457031 269.207031 65.609375 269.207031 65.800781 L 269.207031 195.5 C 269.207031 195.691406 269.050781 195.847656 268.859375 195.847656 " fill-opacity="1" fill-rule="nonzero"/><path fill="#000000" d="M 134.523438 250.035156 L 202.660156 250.035156 L 202.660156 204.398438 L 134.523438 204.398438 Z M 203.007812 250.726562 L 134.175781 250.726562 C 133.984375 250.726562 133.828125 250.574219 133.828125 250.382812 L 133.828125 204.050781 C 133.828125 203.859375 133.984375 203.703125 134.175781 203.703125 L 203.007812 203.703125 C 203.199219 203.703125 203.351562 203.859375 203.351562 204.050781 L 203.351562 250.382812 C 203.351562 250.574219 203.199219 250.726562 203.007812 250.726562 " fill-opacity="1" fill-rule="nonzero"/><path fill="#000000" d="M 91.8125 271.171875 L 245.371094 271.171875 L 244.226562 269.933594 C 232.894531 257.726562 216.84375 250.726562 200.191406 250.726562 L 136.992188 250.726562 C 120.335938 250.726562 104.289062 257.726562 92.957031 269.933594 Z M 246.167969 271.863281 L 91.015625 271.863281 C 90.878906 271.863281 90.753906 271.78125 90.699219 271.65625 C 90.644531 271.527344 90.667969 271.382812 90.761719 271.28125 L 92.449219 269.460938 C 103.910156 257.117188 120.144531 250.035156 136.992188 250.035156 L 200.191406 250.035156 C 217.039062 250.035156 233.273438 257.117188 244.734375 269.460938 L 246.421875 271.28125 C 246.511719 271.382812 246.539062 271.527344 246.484375 271.65625 C 246.429688 271.78125 246.304688 271.863281 246.167969 271.863281 " fill-opacity="1" fill-rule="nonzero"/><path fill="#8c7bff" d="M 190.78125 186.6875 L 190.78125 76.464844 L 75.617188 76.464844 L 75.617188 186.6875 L 190.78125 186.6875 " fill-opacity="1" fill-rule="nonzero"/><path fill="#ffffff" d="M 139.222656 117.089844 L 99.089844 117.089844 L 99.089844 114.179688 L 139.222656 114.179688 L 139.222656 117.089844 " fill-opacity="1" fill-rule="nonzero"/><path fill="#ffffff" d="M 117.679688 100.289062 L 99.089844 100.289062 L 99.089844 97.378906 L 117.679688 97.378906 L 117.679688 100.289062 " fill-opacity="1" fill-rule="nonzero"/><path fill="#ffffff" d="M 132.644531 100.289062 L 121.515625 100.289062 L 121.515625 97.378906 L 132.644531 97.378906 L 132.644531 100.289062 " fill-opacity="1" fill-rule="nonzero"/><path fill="#fed101" d="M 120.636719 150.6875 L 105.199219 150.6875 L 105.199219 147.777344 L 120.636719 147.777344 L 120.636719 150.6875 " fill-opacity="1" fill-rule="nonzero"/><path fill="#fed101" d="M 108 175.886719 L 88.605469 175.886719 L 88.605469 172.976562 L 108 172.976562 L 108 175.886719 " fill-opacity="1" fill-rule="nonzero"/><path fill="#ffffff" d="M 153.90625 175.886719 L 111.265625 175.886719 L 111.265625 172.976562 L 153.90625 172.976562 L 153.90625 175.886719 " fill-opacity="1" fill-rule="nonzero"/><path fill="#fed101" d="M 182.234375 142.289062 L 144.292969 142.289062 L 144.292969 139.378906 L 182.234375 139.378906 L 182.234375 142.289062 " fill-opacity="1" fill-rule="nonzero"/><path fill="#ffffff" d="M 132.644531 142.289062 L 112.144531 142.289062 L 112.144531 139.378906 L 132.644531 139.378906 L 132.644531 142.289062 " fill-opacity="1" fill-rule="nonzero"/><path fill="#fed101" d="M 141.027344 142.289062 L 135.519531 142.289062 L 135.519531 139.378906 L 141.027344 139.378906 L 141.027344 142.289062 " fill-opacity="1" fill-rule="nonzero"/><path fill="#fed101" d="M 113.648438 159.089844 L 97.738281 159.089844 L 97.738281 156.175781 L 113.648438 156.175781 L 113.648438 159.089844 " fill-opacity="1" fill-rule="nonzero"/><path fill="#ffffff" d="M 160.300781 159.089844 L 142.265625 159.089844 L 142.265625 156.175781 L 160.300781 156.175781 L 160.300781 159.089844 " fill-opacity="1" fill-rule="nonzero"/><path fill="#ffffff" d="M 140.644531 159.089844 L 116.664062 159.089844 L 116.664062 156.175781 L 140.644531 156.175781 L 140.644531 159.089844 " fill-opacity="1" fill-rule="nonzero"/><path fill="#ffffff" d="M 168.652344 159.089844 L 163.144531 159.089844 L 163.144531 156.175781 L 168.652344 156.175781 L 168.652344 159.089844 " fill-opacity="1" fill-rule="nonzero"/><path fill="#ffffff" d="M 119.488281 133.859375 L 104.800781 133.859375 L 104.800781 130.949219 L 119.488281 130.949219 L 119.488281 133.859375 " fill-opacity="1" fill-rule="nonzero"/><path fill="#fed101" d="M 140.085938 133.859375 L 122.074219 133.859375 L 122.074219 130.949219 L 140.085938 130.949219 L 140.085938 133.859375 " fill-opacity="1" fill-rule="nonzero"/><path fill="#ffffff" d="M 157.28125 133.859375 L 143.3125 133.859375 L 143.3125 130.949219 L 157.28125 130.949219 L 157.28125 133.859375 " fill-opacity="1" fill-rule="nonzero"/><path fill="#ffffff" d="M 166.742188 133.917969 L 161.234375 133.917969 L 161.234375 131.007812 L 166.742188 131.007812 L 166.742188 133.917969 " fill-opacity="1" fill-rule="nonzero"/><path fill="#fed101" d="M 148.347656 125.488281 L 112.632812 125.488281 L 112.632812 122.578125 L 148.347656 122.578125 L 148.347656 125.488281 " fill-opacity="1" fill-rule="nonzero"/><path fill="#fed101" d="M 126.773438 91.816406 L 91.359375 91.816406 L 91.359375 88.910156 L 126.773438 88.910156 L 126.773438 91.816406 " fill-opacity="1" fill-rule="nonzero"/><path fill="#ffffff" d="M 166.777344 91.960938 L 133.199219 91.960938 L 133.199219 89.050781 L 166.777344 89.050781 L 166.777344 91.960938 " fill-opacity="1" fill-rule="nonzero"/><path fill="#ffffff" d="M 182.234375 91.960938 L 171.261719 91.960938 L 171.261719 89.050781 L 182.234375 89.050781 L 182.234375 91.960938 " fill-opacity="1" fill-rule="nonzero"/><path fill="#ffffff" d="M 180.636719 167.488281 L 145.65625 167.488281 L 145.65625 164.578125 L 180.636719 164.578125 L 180.636719 167.488281 " fill-opacity="1" fill-rule="nonzero"/><path fill="#ffffff" d="M 127.714844 167.488281 L 105.585938 167.488281 L 105.585938 164.578125 L 127.714844 164.578125 L 127.714844 167.488281 " fill-opacity="1" fill-rule="nonzero"/><path fill="#ffffff" d="M 167.878906 108.710938 L 160.875 108.710938 L 160.875 105.804688 L 167.878906 105.804688 L 167.878906 108.710938 " fill-opacity="1" fill-rule="nonzero"/><path fill="#fed101" d="M 113.097656 108.664062 L 95.511719 108.664062 L 95.511719 105.753906 L 113.097656 105.753906 L 113.097656 108.664062 " fill-opacity="1" fill-rule="nonzero"/><path fill="#fed101" d="M 157.28125 108.710938 L 117.679688 108.710938 L 117.679688 105.804688 L 157.28125 105.804688 L 157.28125 108.710938 " fill-opacity="1" fill-rule="nonzero"/><path fill="#955b50" d="M 227.15625 85.050781 L 223.75 85.640625 L 224.503906 92.585938 C 224.613281 93.609375 225.464844 94.304688 226.40625 94.140625 C 227.347656 93.976562 228.019531 93.015625 227.910156 91.996094 L 227.15625 85.050781 " fill-opacity="1" fill-rule="nonzero"/><path fill="#955b50" d="M 223.539062 83.78125 L 220.132812 84.375 L 220.882812 91.320312 C 220.992188 92.34375 221.847656 93.039062 222.789062 92.875 C 223.726562 92.710938 224.402344 91.75 224.289062 90.726562 L 223.539062 83.78125 " fill-opacity="1" fill-rule="nonzero"/><path fill="#955b50" d="M 220.070312 83.746094 L 217.03125 84.277344 L 217.699219 90.476562 C 217.800781 91.390625 218.558594 92.015625 219.398438 91.867188 C 220.242188 91.71875 220.84375 90.863281 220.742188 89.949219 L 220.070312 83.746094 " fill-opacity="1" fill-rule="nonzero"/><path fill="#955b50" d="M 230.878906 87.3125 L 227.546875 86.582031 L 224.578125 100.066406 C 224.375 100.984375 224.957031 101.894531 225.875 102.097656 C 226.796875 102.300781 227.707031 101.71875 227.910156 100.796875 L 230.878906 87.3125 " fill-opacity="1" fill-rule="nonzero"/><path fill="#955b50" d="M 234.003906 75.683594 L 229.320312 80.851562 L 235.492188 91.09375 C 235.9375 91.984375 236.972656 92.28125 237.8125 91.757812 C 238.644531 91.230469 238.960938 90.082031 238.515625 89.191406 L 236.089844 84.347656 L 234.003906 75.683594 " fill-opacity="1" fill-rule="nonzero"/><path fill="#955b50" d="M 233.847656 75.429688 L 235.03125 64.144531 L 222.296875 63.003906 L 221.109375 73.027344 L 217.035156 84.257812 L 230.878906 87.3125 L 233.847656 75.429688 " fill-opacity="1" fill-rule="nonzero"/><path fill="#020202" d="M 235.03125 64.144531 L 222.296875 63.003906 L 221.695312 66.699219 L 234.242188 71.941406 L 235.03125 64.144531 " fill-opacity="1" fill-rule="nonzero"/><path fill="#000000" d="M 225.589844 94.425781 C 225.570312 94.425781 225.550781 94.421875 225.535156 94.417969 C 224.332031 94.21875 224.203125 93.015625 224.160156 92.621094 L 223.480469 86.429688 C 223.457031 86.242188 223.597656 86.070312 223.785156 86.050781 C 223.976562 86.027344 224.148438 86.164062 224.167969 86.355469 L 224.851562 92.546875 C 224.953125 93.492188 225.292969 93.675781 225.648438 93.738281 C 225.835938 93.769531 225.964844 93.945312 225.933594 94.136719 C 225.902344 94.304688 225.757812 94.425781 225.589844 94.425781 " fill-opacity="1" fill-rule="nonzero"/><path fill="#000000" d="M 222.515625 93.246094 C 222.101562 93.246094 221.703125 93.113281 221.367188 92.859375 C 220.90625 92.511719 220.605469 91.964844 220.539062 91.359375 L 219.875 85.171875 C 219.855469 84.980469 219.996094 84.8125 220.183594 84.789062 C 220.378906 84.773438 220.542969 84.90625 220.566406 85.097656 L 221.226562 91.285156 C 221.273438 91.703125 221.476562 92.074219 221.78125 92.304688 C 222.058594 92.511719 222.390625 92.59375 222.726562 92.535156 C 223.488281 92.402344 224.035156 91.609375 223.945312 90.765625 L 223.476562 86.433594 C 223.457031 86.242188 223.59375 86.070312 223.785156 86.050781 C 223.96875 86.03125 224.144531 86.167969 224.164062 86.359375 L 224.632812 90.691406 C 224.761719 91.890625 223.960938 93.023438 222.847656 93.21875 C 222.734375 93.238281 222.621094 93.246094 222.515625 93.246094 " fill-opacity="1" fill-rule="nonzero"/><path fill="#000000" d="M 219.15625 92.234375 C 218.78125 92.234375 218.417969 92.113281 218.109375 91.882812 C 217.691406 91.566406 217.417969 91.066406 217.355469 90.515625 L 216.683594 84.3125 C 216.664062 84.121094 216.800781 83.953125 216.992188 83.929688 C 217.179688 83.910156 217.355469 84.046875 217.375 84.238281 L 218.046875 90.441406 C 218.085938 90.804688 218.257812 91.128906 218.527344 91.328125 C 218.761719 91.503906 219.054688 91.578125 219.34375 91.523438 C 220.003906 91.410156 220.480469 90.71875 220.398438 89.984375 L 219.878906 85.167969 C 219.855469 84.980469 219.996094 84.808594 220.183594 84.789062 C 220.371094 84.769531 220.546875 84.90625 220.566406 85.097656 L 221.089844 89.910156 C 221.207031 91 220.476562 92.03125 219.460938 92.207031 C 219.359375 92.226562 219.257812 92.234375 219.15625 92.234375 " fill-opacity="1" fill-rule="nonzero"/><path fill="#000000" d="M 226.242188 102.484375 C 226.097656 102.484375 225.949219 102.46875 225.800781 102.4375 C 225.265625 102.320312 224.808594 102 224.511719 101.539062 C 224.21875 101.078125 224.121094 100.527344 224.238281 99.992188 L 226.917969 86.449219 C 226.953125 86.261719 227.136719 86.140625 227.320312 86.175781 C 227.507812 86.214844 227.632812 86.398438 227.59375 86.585938 L 224.917969 100.132812 C 224.835938 100.496094 224.902344 100.859375 225.097656 101.167969 C 225.292969 101.472656 225.59375 101.683594 225.949219 101.757812 C 226.683594 101.917969 227.410156 101.457031 227.570312 100.726562 L 230.539062 87.238281 C 230.582031 87.054688 230.765625 86.933594 230.953125 86.976562 C 231.140625 87.015625 231.257812 87.203125 231.21875 87.386719 L 228.25 100.875 C 228.039062 101.832031 227.1875 102.484375 226.242188 102.484375 " fill-opacity="1" fill-rule="nonzero"/><path fill="#000000" d="M 236.9375 92.363281 C 236.761719 92.363281 236.589844 92.339844 236.421875 92.292969 C 235.882812 92.140625 235.441406 91.769531 235.179688 91.246094 L 231.304688 84.8125 C 231.203125 84.648438 231.253906 84.4375 231.421875 84.335938 C 231.582031 84.238281 231.796875 84.292969 231.898438 84.457031 L 235.789062 90.914062 C 235.972656 91.285156 236.257812 91.527344 236.605469 91.625 C 236.949219 91.722656 237.308594 91.664062 237.625 91.464844 C 238.3125 91.03125 238.574219 90.082031 238.207031 89.34375 L 235.78125 84.5 C 235.773438 84.476562 235.761719 84.453125 235.757812 84.429688 L 233.511719 75.515625 C 233.5 75.476562 233.496094 75.433594 233.503906 75.394531 L 234.558594 66.050781 C 234.578125 65.859375 234.746094 65.722656 234.941406 65.746094 C 235.132812 65.769531 235.269531 65.9375 235.246094 66.128906 L 234.199219 75.410156 L 236.417969 84.226562 L 238.824219 89.035156 C 239.351562 90.078125 238.976562 91.433594 237.996094 92.050781 C 237.667969 92.257812 237.300781 92.363281 236.9375 92.363281 " fill-opacity="1" fill-rule="nonzero"/><path fill="#000000" d="M 230.878906 87.660156 C 230.847656 87.660156 230.820312 87.65625 230.789062 87.648438 C 230.605469 87.597656 230.492188 87.410156 230.542969 87.226562 L 231.957031 81.96875 C 232.007812 81.78125 232.195312 81.675781 232.382812 81.722656 C 232.566406 81.773438 232.675781 81.960938 232.625 82.148438 L 231.210938 87.40625 C 231.171875 87.558594 231.03125 87.660156 230.878906 87.660156 " fill-opacity="1" fill-rule="nonzero"/><path fill="#000000" d="M 217.035156 84.605469 C 216.996094 84.605469 216.953125 84.597656 216.914062 84.585938 C 216.734375 84.519531 216.644531 84.320312 216.707031 84.140625 L 220.769531 72.945312 L 221.75 64.917969 C 221.769531 64.726562 221.941406 64.589844 222.132812 64.617188 C 222.324219 64.636719 222.457031 64.8125 222.4375 65 L 221.453125 73.070312 C 221.453125 73.09375 221.445312 73.121094 221.4375 73.148438 L 217.359375 84.378906 C 217.308594 84.515625 217.175781 84.605469 217.035156 84.605469 " fill-opacity="1" fill-rule="nonzero"/><path fill="#8c7bff" d="M 219.84375 66.546875 L 235.773438 67.863281 L 238.769531 37.996094 L 224.59375 37.230469 L 219.84375 66.546875 " fill-opacity="1" fill-rule="nonzero"/><path fill="#000000" d="M 235.777344 68.207031 C 235.765625 68.207031 235.753906 68.207031 235.742188 68.207031 C 235.550781 68.1875 235.414062 68.015625 235.433594 67.828125 L 238.425781 37.957031 C 238.449219 37.769531 238.617188 37.636719 238.808594 37.648438 C 238.996094 37.667969 239.136719 37.839844 239.117188 38.027344 L 236.121094 67.898438 C 236.105469 68.074219 235.953125 68.207031 235.777344 68.207031 " fill-opacity="1" fill-rule="nonzero"/><path fill="#8c7bff" d="M 318.570312 43.578125 L 292.632812 60.160156 L 283.636719 46.085938 L 309.570312 29.5 L 318.570312 43.578125 " fill-opacity="1" fill-rule="nonzero"/><path fill="#000000" d="M 292.632812 60.507812 C 292.609375 60.507812 292.582031 60.507812 292.558594 60.5 C 292.472656 60.480469 292.390625 60.425781 292.339844 60.347656 L 283.34375 46.273438 C 283.238281 46.109375 283.285156 45.898438 283.445312 45.792969 L 306.082031 31.320312 C 306.242188 31.21875 306.453125 31.265625 306.558594 31.425781 C 306.660156 31.585938 306.617188 31.800781 306.453125 31.90625 L 284.113281 46.191406 L 292.738281 59.683594 L 301.855469 53.855469 C 302.019531 53.75 302.234375 53.796875 302.332031 53.957031 C 302.4375 54.121094 302.390625 54.335938 302.230469 54.4375 L 292.820312 60.453125 C 292.761719 60.492188 292.699219 60.507812 292.632812 60.507812 " fill-opacity="1" fill-rule="nonzero"/><path fill="#955b50" d="M 281.308594 50.890625 C 280.191406 51.605469 278.554688 50.476562 276.027344 52.09375 L 269.933594 55.988281 C 268.128906 57.144531 266.882812 59 266.503906 61.113281 L 266.300781 62.214844 C 266.148438 63.070312 266.539062 63.917969 267.25 64.367188 L 267.265625 64.367188 L 267.042969 65.609375 C 266.875 66.558594 267.367188 67.496094 268.234375 67.894531 L 268.101562 68.636719 C 267.921875 69.621094 268.464844 70.597656 269.394531 70.964844 L 270.207031 71.285156 C 270.179688 72.089844 270.65625 72.835938 271.421875 73.140625 C 272.570312 73.597656 273.839844 72.875 274.039062 71.65625 L 274.261719 70.304688 C 274.371094 69.65625 274.746094 69.089844 275.292969 68.734375 L 281.6875 64.648438 L 285.054688 62.496094 L 291.492188 58.378906 L 285.136719 48.441406 L 281.308594 50.890625 " fill-opacity="1" fill-rule="nonzero"/><path fill="#020202" d="M 281.59375 50.707031 L 291.492188 58.378906 L 285.136719 48.441406 L 281.59375 50.707031 " fill-opacity="1" fill-rule="nonzero"/><path fill="#000000" d="M 268.234375 68.238281 C 268.1875 68.238281 268.136719 68.230469 268.089844 68.207031 C 267.074219 67.742188 266.503906 66.648438 266.699219 65.550781 L 267.050781 63.597656 C 267.351562 61.9375 268.339844 60.460938 269.761719 59.554688 L 272.882812 57.554688 C 273.046875 57.453125 273.257812 57.5 273.363281 57.664062 C 273.464844 57.824219 273.417969 58.039062 273.257812 58.140625 L 270.132812 60.136719 C 268.875 60.941406 268 62.25 267.734375 63.722656 L 267.382812 65.671875 C 267.242188 66.460938 267.652344 67.246094 268.378906 67.578125 C 268.554688 67.65625 268.628906 67.863281 268.550781 68.039062 C 268.492188 68.164062 268.363281 68.238281 268.234375 68.238281 " fill-opacity="1" fill-rule="nonzero"/><path fill="#000000" d="M 270.214844 71.632812 C 270.171875 71.632812 270.128906 71.628906 270.089844 71.609375 L 269.269531 71.285156 C 268.1875 70.855469 267.554688 69.71875 267.761719 68.574219 L 268.183594 66.234375 C 268.4375 64.820312 269.277344 63.566406 270.488281 62.792969 L 274.59375 60.167969 C 274.757812 60.0625 274.96875 60.109375 275.074219 60.273438 C 275.175781 60.433594 275.128906 60.648438 274.96875 60.75 L 270.863281 63.375 C 269.8125 64.046875 269.085938 65.132812 268.867188 66.359375 L 268.441406 68.699219 C 268.296875 69.515625 268.75 70.335938 269.523438 70.640625 L 270.34375 70.96875 C 270.519531 71.035156 270.605469 71.238281 270.539062 71.414062 C 270.484375 71.550781 270.355469 71.632812 270.214844 71.632812 " fill-opacity="1" fill-rule="nonzero"/><path fill="#000000" d="M 281.6875 64.996094 C 281.570312 64.996094 281.460938 64.9375 281.394531 64.835938 C 281.289062 64.675781 281.335938 64.460938 281.5 64.355469 L 291.011719 58.273438 L 285.035156 48.917969 L 281.496094 51.179688 C 280.960938 51.523438 280.339844 51.511719 279.6875 51.503906 C 278.726562 51.488281 277.640625 51.46875 276.210938 52.382812 L 270.121094 56.277344 C 268.398438 57.378906 267.207031 59.164062 266.84375 61.175781 L 266.644531 62.277344 C 266.515625 62.984375 266.828125 63.691406 267.433594 64.074219 C 267.597656 64.175781 267.644531 64.390625 267.542969 64.550781 C 267.441406 64.714844 267.230469 64.761719 267.066406 64.660156 C 266.21875 64.125 265.785156 63.140625 265.960938 62.15625 L 266.160156 61.050781 C 266.558594 58.851562 267.863281 56.898438 269.746094 55.695312 L 275.839844 51.800781 C 277.445312 50.773438 278.75 50.796875 279.699219 50.8125 C 280.292969 50.820312 280.761719 50.828125 281.121094 50.597656 L 285.242188 47.960938 L 291.972656 58.484375 L 281.875 64.941406 C 281.816406 64.976562 281.75 64.996094 281.6875 64.996094 " fill-opacity="1" fill-rule="nonzero"/><path fill="#000000" d="M 272.132812 73.625 C 271.851562 73.625 271.566406 73.570312 271.292969 73.464844 C 270.289062 73.066406 269.699219 72.007812 269.890625 70.941406 L 270.332031 68.503906 C 270.589844 67.066406 271.445312 65.789062 272.675781 65 L 276.089844 62.816406 C 276.253906 62.710938 276.46875 62.761719 276.570312 62.921875 C 276.671875 63.082031 276.628906 63.296875 276.464844 63.398438 L 273.050781 65.585938 C 271.976562 66.269531 271.234375 67.375 271.011719 68.625 L 270.574219 71.066406 C 270.4375 71.804688 270.851562 72.542969 271.546875 72.820312 C 271.996094 72.996094 272.496094 72.964844 272.917969 72.726562 C 273.335938 72.488281 273.621094 72.078125 273.699219 71.601562 L 273.917969 70.25 C 274.042969 69.507812 274.476562 68.847656 275.109375 68.445312 L 284.867188 62.203125 C 286.46875 61.179688 287.457031 59.433594 287.507812 57.53125 C 287.511719 57.339844 287.675781 57.191406 287.863281 57.195312 C 288.054688 57.199219 288.207031 57.359375 288.199219 57.550781 C 288.140625 59.683594 287.035156 61.640625 285.238281 62.789062 L 275.480469 69.027344 C 275.011719 69.328125 274.691406 69.8125 274.601562 70.363281 L 274.382812 71.714844 C 274.273438 72.398438 273.859375 72.988281 273.257812 73.328125 C 272.910156 73.527344 272.523438 73.625 272.132812 73.625 " fill-opacity="1" fill-rule="nonzero"/><path fill="#ffffff" d="M 282.214844 234.132812 C 274.367188 231.417969 270.21875 222.875 272.9375 215.050781 C 275.660156 207.226562 284.226562 203.085938 292.070312 205.800781 C 299.914062 208.515625 304.066406 217.058594 301.34375 224.882812 C 298.621094 232.707031 290.058594 236.847656 282.214844 234.132812 Z M 315.96875 236.238281 L 319.875 225 L 312.855469 222.570312 C 313.140625 219.792969 312.964844 217.027344 312.367188 214.375 L 319.058594 211.140625 L 313.855469 200.441406 L 307.167969 203.675781 C 305.449219 201.566406 303.382812 199.71875 301.015625 198.21875 L 303.453125 191.214844 L 292.1875 187.316406 L 289.753906 194.320312 C 286.964844 194.035156 284.195312 194.210938 281.535156 194.804688 L 278.292969 188.132812 L 267.5625 193.320312 L 270.808594 199.992188 C 268.695312 201.707031 266.839844 203.769531 265.335938 206.128906 L 257.992188 203.925781 L 254.40625 214.933594 L 261.425781 217.363281 C 261.140625 220.144531 261.320312 222.90625 261.914062 225.558594 L 255.222656 228.792969 L 260.425781 239.492188 L 267.113281 236.257812 C 268.832031 238.363281 270.898438 240.214844 273.265625 241.714844 L 270.828125 248.71875 L 282.09375 252.617188 L 284.53125 245.613281 C 287.320312 245.898438 290.089844 245.722656 292.746094 245.128906 L 295.988281 251.800781 L 306.71875 246.613281 L 303.476562 239.941406 C 305.589844 238.226562 307.441406 236.167969 308.945312 233.808594 L 315.96875 236.238281 " fill-opacity="1" fill-rule="nonzero"/><path fill="#000000" d="M 287.15625 205.316406 C 281.070312 205.316406 275.367188 209.117188 273.265625 215.164062 C 271.980469 218.855469 272.210938 222.828125 273.917969 226.34375 C 275.628906 229.871094 278.613281 232.519531 282.328125 233.804688 C 289.980469 236.453125 298.363281 232.398438 301.015625 224.769531 C 302.304688 221.078125 302.070312 217.109375 300.367188 213.589844 C 298.652344 210.0625 295.667969 207.414062 291.957031 206.128906 C 290.367188 205.578125 288.746094 205.316406 287.15625 205.316406 Z M 287.128906 235.308594 C 285.460938 235.308594 283.765625 235.035156 282.101562 234.460938 C 278.214844 233.117188 275.085938 230.339844 273.292969 226.644531 C 271.511719 222.960938 271.265625 218.804688 272.613281 214.9375 C 275.390625 206.945312 284.171875 202.699219 292.183594 205.472656 C 296.070312 206.816406 299.195312 209.59375 300.988281 213.289062 C 302.777344 216.972656 303.019531 221.128906 301.671875 224.996094 C 299.46875 231.328125 293.496094 235.308594 287.128906 235.308594 Z M 271.273438 248.503906 L 281.878906 252.175781 L 284.203125 245.5 C 284.253906 245.347656 284.40625 245.257812 284.5625 245.269531 C 287.277344 245.546875 290.003906 245.382812 292.671875 244.789062 C 292.832031 244.757812 292.988281 244.832031 293.0625 244.976562 L 296.152344 251.339844 L 306.253906 246.453125 L 303.164062 240.09375 C 303.09375 239.949219 303.132812 239.773438 303.257812 239.671875 C 305.378906 237.949219 307.195312 235.914062 308.65625 233.621094 C 308.742188 233.484375 308.910156 233.429688 309.0625 233.480469 L 315.753906 235.796875 L 319.433594 225.214844 L 312.742188 222.898438 C 312.589844 222.847656 312.496094 222.695312 312.511719 222.535156 C 312.789062 219.832031 312.628906 217.113281 312.03125 214.449219 C 311.996094 214.292969 312.074219 214.132812 312.21875 214.0625 L 318.597656 210.980469 L 313.695312 200.902344 L 307.320312 203.988281 C 307.175781 204.054688 307 204.019531 306.902344 203.894531 C 305.175781 201.78125 303.132812 199.96875 300.832031 198.511719 C 300.695312 198.425781 300.636719 198.257812 300.691406 198.105469 L 303.011719 191.429688 L 292.402344 187.757812 L 290.078125 194.433594 C 290.027344 194.585938 289.878906 194.679688 289.71875 194.664062 C 287.003906 194.386719 284.277344 194.546875 281.609375 195.144531 C 281.453125 195.175781 281.292969 195.101562 281.226562 194.957031 L 278.132812 188.59375 L 268.027344 193.480469 L 271.117188 199.839844 C 271.1875 199.984375 271.152344 200.160156 271.023438 200.261719 C 268.90625 201.980469 267.089844 204.019531 265.628906 206.3125 C 265.546875 206.445312 265.382812 206.503906 265.234375 206.457031 L 258.214844 204.355469 L 254.84375 214.714844 L 261.539062 217.035156 C 261.695312 217.085938 261.789062 217.238281 261.773438 217.394531 C 261.496094 220.101562 261.65625 222.820312 262.25 225.484375 C 262.289062 225.640625 262.207031 225.800781 262.0625 225.871094 L 255.6875 228.953125 L 260.585938 239.03125 L 266.960938 235.945312 C 267.109375 235.875 267.28125 235.914062 267.382812 236.039062 C 269.109375 238.152344 271.152344 239.964844 273.449219 241.421875 C 273.585938 241.507812 273.644531 241.675781 273.59375 241.828125 Z M 282.09375 252.960938 C 282.054688 252.960938 282.019531 252.957031 281.980469 252.945312 L 270.714844 249.046875 C 270.628906 249.015625 270.558594 248.949219 270.515625 248.871094 C 270.480469 248.785156 270.472656 248.691406 270.503906 248.605469 L 272.851562 241.859375 C 270.65625 240.4375 268.699219 238.699219 267.019531 236.6875 L 260.574219 239.804688 C 260.40625 239.886719 260.195312 239.816406 260.113281 239.644531 L 254.914062 228.945312 C 254.871094 228.863281 254.867188 228.765625 254.898438 228.679688 C 254.925781 228.589844 254.988281 228.519531 255.074219 228.480469 L 261.515625 225.363281 C 260.972656 222.808594 260.820312 220.199219 261.054688 217.601562 L 254.292969 215.257812 C 254.113281 215.199219 254.019531 215.003906 254.078125 214.824219 L 257.660156 203.816406 C 257.71875 203.640625 257.910156 203.539062 258.089844 203.59375 L 265.1875 205.722656 C 266.609375 203.527344 268.355469 201.570312 270.375 199.898438 L 267.253906 193.472656 C 267.210938 193.390625 267.207031 193.292969 267.238281 193.207031 C 267.265625 193.121094 267.328125 193.046875 267.414062 193.007812 L 278.140625 187.820312 C 278.316406 187.738281 278.519531 187.808594 278.605469 187.980469 L 281.730469 194.410156 C 284.292969 193.867188 286.910156 193.710938 289.515625 193.949219 L 291.863281 187.203125 C 291.925781 187.023438 292.121094 186.929688 292.300781 186.992188 L 303.566406 190.890625 C 303.652344 190.917969 303.722656 190.984375 303.765625 191.0625 C 303.804688 191.148438 303.8125 191.242188 303.78125 191.328125 L 301.433594 198.074219 C 303.628906 199.496094 305.585938 201.234375 307.261719 203.246094 L 313.707031 200.128906 C 313.882812 200.046875 314.085938 200.117188 314.167969 200.289062 L 319.367188 210.988281 C 319.410156 211.074219 319.417969 211.167969 319.386719 211.253906 C 319.355469 211.34375 319.292969 211.414062 319.210938 211.453125 L 312.765625 214.570312 C 313.3125 217.125 313.464844 219.734375 313.226562 222.332031 L 319.988281 224.675781 C 320.074219 224.703125 320.148438 224.765625 320.1875 224.851562 C 320.230469 224.933594 320.234375 225.03125 320.203125 225.117188 L 316.296875 236.351562 C 316.230469 236.53125 316.035156 236.625 315.855469 236.5625 L 309.089844 234.222656 C 307.664062 236.410156 305.921875 238.363281 303.90625 240.035156 L 307.03125 246.460938 C 307.070312 246.546875 307.078125 246.640625 307.042969 246.726562 C 307.015625 246.8125 306.953125 246.882812 306.867188 246.925781 L 296.140625 252.113281 C 295.96875 252.195312 295.761719 252.125 295.679688 251.953125 L 292.554688 245.523438 C 289.988281 246.070312 287.371094 246.222656 284.765625 245.984375 L 282.417969 252.730469 C 282.371094 252.871094 282.234375 252.960938 282.09375 252.960938 " fill-opacity="1" fill-rule="nonzero"/><path fill="#fed101" d="M 68.253906 296.117188 L 46.078125 296.117188 L 55.828125 277.367188 L 71.503906 277.367188 L 68.253906 296.117188 " fill-opacity="1" fill-rule="nonzero"/><path fill="#000000" d="M 70.691406 282.058594 L 50.953125 286.742188 L 55.828125 277.367188 L 71.503906 277.367188 L 70.691406 282.058594 " fill-opacity="1" fill-rule="nonzero"/><g clip-path="url(#2594b9b007)"><path fill="#000000" d="M 69.804688 300.039062 L 65.597656 300.039062 L 63.800781 298.1875 L 62 300.039062 L 53.535156 300.039062 L 51.632812 298.1875 L 49.664062 300.039062 L 43.757812 300.039062 L 44.558594 295.699219 L 69.003906 295.699219 L 69.804688 300.039062 " fill-opacity="1" fill-rule="nonzero"/></g><path fill="#fed101" d="M 124.292969 298.027344 C 124.371094 297.496094 124.414062 296.953125 124.414062 296.402344 C 124.414062 290.335938 119.496094 285.421875 113.433594 285.421875 C 107.367188 285.421875 102.453125 290.335938 102.453125 296.402344 C 102.453125 296.953125 102.492188 297.496094 102.570312 298.027344 L 124.292969 298.027344 " fill-opacity="1" fill-rule="nonzero"/><path fill="#fed101" d="M 122.394531 295.542969 L 99.136719 295.542969 L 101.980469 280.816406 L 113.859375 280.816406 L 122.394531 295.542969 " fill-opacity="1" fill-rule="nonzero"/><path fill="#000000" d="M 114.578125 282.058594 L 100.964844 286.078125 L 101.980469 280.816406 L 113.859375 280.816406 L 114.578125 282.058594 " fill-opacity="1" fill-rule="nonzero"/><path fill="#000000" d="M 119.066406 290.148438 C 118.949219 290.148438 118.832031 290.085938 118.769531 289.972656 L 116.542969 286.136719 C 116.445312 285.96875 116.503906 285.757812 116.667969 285.664062 C 116.832031 285.566406 117.046875 285.621094 117.140625 285.789062 L 119.367188 289.625 C 119.460938 289.792969 119.40625 290.003906 119.242188 290.101562 C 119.1875 290.132812 119.125 290.148438 119.066406 290.148438 " fill-opacity="1" fill-rule="nonzero"/><path fill="#000000" d="M 125.699219 299.882812 L 121.21875 299.882812 L 119.304688 298.027344 L 117.386719 299.882812 L 108.367188 299.882812 L 106.34375 298.027344 L 104.242188 299.882812 L 97.953125 299.882812 L 98.804688 295.542969 L 124.847656 295.542969 L 125.699219 299.882812 " fill-opacity="1" fill-rule="nonzero"/><path fill="#8c7bff" d="M 123.171875 203.679688 L 118.890625 172.546875 L 79.792969 172.546875 L 79.792969 193.492188 L 72.394531 229.257812 L 51.394531 282.058594 L 72.417969 282.058594 L 85.742188 253.585938 C 91.714844 240.820312 95.800781 227.253906 97.863281 213.308594 L 100.179688 197.660156 L 103.027344 228.5625 L 97.863281 282.058594 L 118.890625 282.058594 L 122.976562 253.996094 C 125.402344 237.316406 125.46875 220.378906 123.171875 203.679688 " fill-opacity="1" fill-rule="nonzero"/><path fill="#6155ff" d="M 107.078125 193.117188 C 103.6875 193.117188 100.9375 190.371094 100.9375 186.980469 L 100.9375 179.832031 L 113.21875 179.832031 L 113.21875 186.980469 C 113.21875 190.371094 110.46875 193.117188 107.078125 193.117188 " fill-opacity="1" fill-rule="nonzero"/><path fill="#000000" d="M 118.890625 282.402344 L 97.863281 282.402344 C 97.765625 282.402344 97.671875 282.363281 97.609375 282.289062 C 97.542969 282.21875 97.511719 282.121094 97.519531 282.023438 L 102.679688 228.5625 L 99.832031 197.691406 C 99.816406 197.5 99.957031 197.332031 100.148438 197.3125 C 100.335938 197.296875 100.503906 197.4375 100.523438 197.625 L 103.371094 228.53125 C 103.375 228.554688 103.375 228.578125 103.371094 228.597656 L 98.246094 281.710938 L 118.589844 281.710938 L 122.632812 253.945312 C 125.054688 237.296875 125.121094 220.398438 122.828125 203.726562 L 118.546875 172.59375 C 118.519531 172.40625 118.652344 172.230469 118.84375 172.203125 C 119.03125 172.175781 119.207031 172.3125 119.234375 172.5 L 123.515625 203.632812 C 125.816406 220.367188 125.75 237.328125 123.316406 254.046875 L 119.230469 282.109375 C 119.207031 282.277344 119.0625 282.402344 118.890625 282.402344 " fill-opacity="1" fill-rule="nonzero"/><path fill="#000000" d="M 105.441406 197.875 L 92.167969 197.875 C 91.976562 197.875 91.824219 197.71875 91.824219 197.527344 C 91.824219 197.335938 91.976562 197.183594 92.167969 197.183594 L 105.441406 197.183594 C 105.632812 197.183594 105.785156 197.335938 105.785156 197.527344 C 105.785156 197.71875 105.632812 197.875 105.441406 197.875 " fill-opacity="1" fill-rule="nonzero"/><path fill="#000000" d="M 81.832031 233.542969 C 81.773438 233.542969 81.714844 233.527344 81.660156 233.5 L 72.222656 228.136719 C 72.082031 228.058594 72.015625 227.890625 72.0625 227.738281 C 72.105469 227.582031 72.257812 227.484375 72.414062 227.492188 L 80.507812 227.972656 C 80.699219 227.984375 80.84375 228.148438 80.832031 228.339844 C 80.820312 228.53125 80.65625 228.671875 80.464844 228.664062 L 73.859375 228.269531 L 82.003906 232.894531 C 82.167969 232.992188 82.226562 233.203125 82.132812 233.367188 C 82.070312 233.480469 81.953125 233.542969 81.832031 233.542969 " fill-opacity="1" fill-rule="nonzero"/><path fill="#000000" d="M 108.410156 232.285156 C 108.347656 232.285156 108.28125 232.269531 108.226562 232.234375 L 102.84375 228.855469 C 102.710938 228.777344 102.652344 228.617188 102.695312 228.46875 C 102.738281 228.320312 102.871094 228.21875 103.027344 228.21875 L 110.765625 228.21875 C 110.957031 228.21875 111.113281 228.371094 111.113281 228.5625 C 111.113281 228.753906 110.957031 228.910156 110.765625 228.910156 L 104.230469 228.910156 L 108.59375 231.644531 C 108.757812 231.746094 108.804688 231.960938 108.703125 232.121094 C 108.636719 232.226562 108.523438 232.285156 108.410156 232.285156 " fill-opacity="1" fill-rule="nonzero"/><path fill="#000000" d="M 79.792969 186.476562 L 79.792969 172.546875 L 118.867188 172.546875 Z M 79.792969 186.476562 " fill-opacity="1" fill-rule="nonzero"/><path fill="#fda4ff" d="M 131.757812 113.15625 L 129.019531 120.203125 L 128.375 116.054688 L 129.039062 114.253906 C 129.410156 113.246094 130.519531 112.722656 131.53125 113.074219 L 131.757812 113.15625 " fill-opacity="1" fill-rule="nonzero"/><path fill="#fda4ff" d="M 142.335938 118.574219 L 141.269531 126.632812 L 131.429688 129.507812 L 128.546875 122 C 127.769531 119.980469 127.753906 117.75 128.5 115.71875 L 128.957031 114.476562 L 142.335938 118.574219 " fill-opacity="1" fill-rule="nonzero"/><path fill="#ffffff" d="M 124.957031 106.214844 C 124.957031 115.492188 117.4375 123.015625 108.160156 123.015625 C 98.882812 123.015625 91.359375 115.492188 91.359375 106.214844 C 91.359375 96.9375 98.882812 89.417969 108.160156 89.417969 C 117.4375 89.417969 124.957031 96.9375 124.957031 106.214844 " fill-opacity="1" fill-rule="nonzero"/><path fill="#000000" d="M 126.890625 115.332031 L 146.230469 123.222656 L 147.855469 119.234375 L 128.539062 111.355469 Z M 146.421875 124.019531 C 146.375 124.019531 146.332031 124.011719 146.289062 123.996094 L 126.308594 115.84375 C 126.222656 115.808594 126.152344 115.738281 126.121094 115.65625 C 126.082031 115.570312 126.082031 115.472656 126.117188 115.386719 L 128.03125 110.769531 C 128.101562 110.59375 128.304688 110.507812 128.480469 110.582031 L 148.441406 118.726562 C 148.617188 118.796875 148.703125 119 148.628906 119.179688 L 146.742188 123.804688 C 146.707031 123.890625 146.640625 123.957031 146.554688 123.992188 C 146.511719 124.011719 146.464844 124.019531 146.421875 124.019531 " fill-opacity="1" fill-rule="nonzero"/><path fill="#000000" d="M 108.160156 89.761719 C 99.085938 89.761719 91.707031 97.144531 91.707031 106.214844 C 91.707031 115.285156 99.085938 122.667969 108.160156 122.667969 C 117.230469 122.667969 124.609375 115.285156 124.609375 106.214844 C 124.609375 97.144531 117.230469 89.761719 108.160156 89.761719 Z M 108.160156 123.359375 C 98.707031 123.359375 91.015625 115.667969 91.015625 106.214844 C 91.015625 96.761719 98.707031 89.070312 108.160156 89.070312 C 117.613281 89.070312 125.304688 96.761719 125.304688 106.214844 C 125.304688 115.667969 117.613281 123.359375 108.160156 123.359375 " fill-opacity="1" fill-rule="nonzero"/><path fill="#000000" d="M 117.796875 116.199219 C 117.710938 116.199219 117.621094 116.167969 117.554688 116.097656 C 117.417969 115.964844 117.417969 115.746094 117.554688 115.609375 C 119.570312 113.589844 120.863281 111.042969 121.292969 108.234375 C 121.320312 108.046875 121.496094 107.914062 121.6875 107.945312 C 121.875 107.972656 122.003906 108.152344 121.976562 108.339844 C 121.527344 111.292969 120.164062 113.976562 118.042969 116.097656 C 117.976562 116.167969 117.886719 116.199219 117.796875 116.199219 " fill-opacity="1" fill-rule="nonzero"/><path fill="#000000" d="M 121.632812 104.488281 C 121.464844 104.488281 121.316406 104.367188 121.292969 104.195312 C 120.3125 97.773438 114.667969 92.929688 108.160156 92.929688 C 107.96875 92.929688 107.8125 92.773438 107.8125 92.582031 C 107.8125 92.390625 107.96875 92.238281 108.160156 92.238281 C 115.007812 92.238281 120.945312 97.332031 121.976562 104.089844 C 122.007812 104.277344 121.875 104.457031 121.6875 104.484375 C 121.667969 104.488281 121.652344 104.488281 121.632812 104.488281 " fill-opacity="1" fill-rule="nonzero"/><path fill="#000000" d="M 126.726562 115.1875 C 126.679688 115.1875 126.636719 115.179688 126.59375 115.160156 L 123.304688 113.8125 C 123.128906 113.738281 123.042969 113.535156 123.117188 113.359375 C 123.191406 113.183594 123.394531 113.097656 123.570312 113.167969 L 126.535156 114.390625 L 127.589844 111.820312 L 124.410156 110.511719 C 124.234375 110.441406 124.148438 110.238281 124.222656 110.0625 C 124.292969 109.882812 124.496094 109.800781 124.671875 109.871094 L 128.175781 111.3125 C 128.261719 111.347656 128.328125 111.414062 128.363281 111.5 C 128.398438 111.582031 128.398438 111.679688 128.363281 111.761719 L 127.046875 114.972656 C 127.011719 115.058594 126.941406 115.125 126.859375 115.160156 C 126.816406 115.179688 126.769531 115.1875 126.726562 115.1875 " fill-opacity="1" fill-rule="nonzero"/><path fill="#fda4ff" d="M 135.210938 111.804688 L 132.191406 120.019531 L 129.480469 119.023438 L 132.496094 110.808594 C 132.761719 110.089844 133.558594 109.722656 134.277344 109.984375 L 134.386719 110.027344 C 135.109375 110.289062 135.476562 111.085938 135.210938 111.804688 " fill-opacity="1" fill-rule="nonzero"/><path fill="#fda4ff" d="M 138.378906 111.570312 L 135.203125 120.214844 L 132.488281 119.21875 L 135.664062 110.574219 C 135.929688 109.847656 136.734375 109.476562 137.457031 109.742188 L 137.550781 109.777344 C 138.273438 110.042969 138.644531 110.84375 138.378906 111.570312 " fill-opacity="1" fill-rule="nonzero"/><path fill="#fda4ff" d="M 143.800781 113.578125 L 140.675781 122.082031 L 137.960938 121.085938 L 141.089844 112.578125 C 141.355469 111.847656 142.164062 111.476562 142.894531 111.742188 L 142.964844 111.769531 C 143.695312 112.035156 144.070312 112.847656 143.800781 113.578125 " fill-opacity="1" fill-rule="nonzero"/><path fill="#fda4ff" d="M 143.800781 119.839844 L 141.296875 126.570312 L 138.570312 125.566406 L 142.792969 114.164062 L 143.777344 116.714844 C 144.164062 117.71875 144.171875 118.828125 143.800781 119.839844 " fill-opacity="1" fill-rule="nonzero"/><path fill="#fda4ff" d="M 139.917969 111.347656 L 140.0625 111.40625 C 140.773438 111.664062 141.097656 112.550781 140.792969 113.382812 L 137.738281 121.695312 L 135.023438 120.695312 L 138.078125 112.386719 C 138.386719 111.554688 139.207031 111.089844 139.917969 111.347656 " fill-opacity="1" fill-rule="nonzero"/><path fill="#fda4ff" d="M 141.390625 125.921875 L 141.097656 138.101562 L 130.601562 134.75 L 130.84375 122.046875 L 141.390625 125.921875 " fill-opacity="1" fill-rule="nonzero"/><path fill="#000000" d="M 141.289062 130.074219 L 141.097656 138.101562 L 130.601562 134.75 L 130.667969 131.234375 L 137.183594 130.523438 L 141.289062 130.074219 " fill-opacity="1" fill-rule="nonzero"/><path fill="#000000" d="M 137.308594 114.832031 C 137.265625 114.832031 137.226562 114.828125 137.1875 114.8125 C 137.007812 114.746094 136.914062 114.546875 136.980469 114.367188 L 138.054688 111.449219 C 138.148438 111.1875 138.136719 110.902344 138.023438 110.648438 C 137.902344 110.394531 137.695312 110.199219 137.429688 110.101562 L 137.335938 110.070312 C 137.074219 109.972656 136.789062 109.984375 136.535156 110.101562 C 136.28125 110.21875 136.085938 110.429688 135.992188 110.691406 L 134.773438 114.003906 C 134.707031 114.183594 134.507812 114.277344 134.328125 114.210938 C 134.148438 114.144531 134.058594 113.945312 134.121094 113.765625 L 135.339844 110.453125 C 135.671875 109.550781 136.675781 109.089844 137.574219 109.417969 L 137.667969 109.453125 C 138.105469 109.613281 138.453125 109.933594 138.648438 110.359375 C 138.84375 110.78125 138.863281 111.25 138.703125 111.6875 L 137.632812 114.605469 C 137.582031 114.746094 137.449219 114.832031 137.308594 114.832031 " fill-opacity="1" fill-rule="nonzero"/><path fill="#000000" d="M 139.863281 116.257812 C 139.824219 116.257812 139.785156 116.25 139.742188 116.238281 C 139.5625 116.171875 139.472656 115.972656 139.539062 115.792969 L 140.550781 113.039062 C 140.746094 112.511719 140.472656 111.921875 139.945312 111.730469 L 139.796875 111.675781 C 139.269531 111.480469 138.679688 111.753906 138.488281 112.28125 L 137.511719 114.9375 C 137.445312 115.117188 137.246094 115.210938 137.066406 115.144531 C 136.886719 115.078125 136.792969 114.878906 136.859375 114.699219 L 137.835938 112.042969 C 138.164062 111.15625 139.148438 110.699219 140.035156 111.023438 L 140.183594 111.078125 C 141.070312 111.40625 141.527344 112.390625 141.199219 113.277344 L 140.1875 116.03125 C 140.136719 116.171875 140.003906 116.257812 139.863281 116.257812 " fill-opacity="1" fill-rule="nonzero"/><path fill="#000000" d="M 129.757812 118.613281 C 129.71875 118.613281 129.675781 118.605469 129.636719 118.589844 C 129.457031 118.527344 129.367188 118.328125 129.433594 118.144531 L 132.171875 110.691406 C 132.503906 109.792969 133.5 109.332031 134.398438 109.660156 L 134.507812 109.703125 C 134.941406 109.863281 135.289062 110.179688 135.484375 110.601562 C 135.675781 111.019531 135.695312 111.492188 135.535156 111.925781 L 134.554688 114.59375 C 134.488281 114.773438 134.292969 114.863281 134.113281 114.796875 C 133.933594 114.730469 133.839844 114.53125 133.90625 114.355469 L 134.886719 111.6875 C 134.980469 111.425781 134.972656 111.144531 134.855469 110.890625 C 134.738281 110.640625 134.53125 110.449219 134.269531 110.351562 L 134.160156 110.3125 C 133.621094 110.113281 133.019531 110.390625 132.824219 110.929688 L 130.082031 118.386719 C 130.03125 118.527344 129.898438 118.613281 129.757812 118.613281 " fill-opacity="1" fill-rule="nonzero"/><path fill="#000000" d="M 141.097656 138.449219 C 141.0625 138.449219 141.027344 138.445312 140.992188 138.433594 L 130.496094 135.078125 C 130.351562 135.035156 130.253906 134.898438 130.253906 134.742188 L 130.386719 127.761719 L 128.222656 122.125 C 127.496094 120.234375 127.410156 118.125 127.980469 116.183594 C 128.035156 116 128.226562 115.894531 128.410156 115.949219 C 128.59375 116.003906 128.699219 116.195312 128.644531 116.378906 C 128.117188 118.175781 128.195312 120.128906 128.867188 121.878906 L 131.058594 127.578125 C 131.074219 127.621094 131.082031 127.664062 131.082031 127.707031 L 130.953125 134.5 L 140.761719 137.632812 L 141.03125 126.394531 C 141.035156 126.355469 141.039062 126.320312 141.054688 126.285156 L 143.476562 119.71875 C 143.816406 118.789062 143.808594 117.765625 143.453125 116.839844 L 142.890625 115.386719 C 142.863281 115.308594 142.859375 115.226562 142.890625 115.148438 L 143.476562 113.460938 C 143.574219 113.191406 143.5625 112.902344 143.445312 112.644531 C 143.324219 112.386719 143.113281 112.191406 142.847656 112.09375 L 142.773438 112.066406 C 142.226562 111.867188 141.617188 112.148438 141.414062 112.695312 L 140.03125 116.457031 C 139.964844 116.632812 139.769531 116.726562 139.585938 116.660156 C 139.40625 116.59375 139.316406 116.394531 139.382812 116.214844 L 140.761719 112.457031 C 141.097656 111.550781 142.105469 111.082031 143.015625 111.417969 L 143.085938 111.445312 C 143.527344 111.605469 143.875 111.929688 144.074219 112.351562 C 144.269531 112.777344 144.289062 113.253906 144.125 113.695312 L 143.585938 115.253906 L 144.097656 116.59375 C 144.515625 117.675781 144.527344 118.871094 144.125 119.957031 L 141.722656 126.46875 L 141.445312 138.109375 C 141.441406 138.222656 141.390625 138.320312 141.300781 138.386719 C 141.242188 138.429688 141.171875 138.449219 141.097656 138.449219 " fill-opacity="1" fill-rule="nonzero"/><path fill="#fed101" d="M 135.96875 167.46875 C 131.003906 167.378906 127.050781 163.289062 127.136719 158.324219 L 127.503906 132.972656 L 145.546875 133.007812 L 145.105469 158.636719 C 145.019531 163.597656 140.929688 167.550781 135.96875 167.46875 " fill-opacity="1" fill-rule="nonzero"/><path fill="#000000" d="M 127.84375 133.320312 L 127.484375 158.332031 C 127.402344 163.09375 131.210938 167.039062 135.972656 167.121094 C 136.023438 167.121094 136.074219 167.121094 136.125 167.121094 C 140.820312 167.121094 144.679688 163.34375 144.761719 158.628906 L 145.195312 133.351562 Z M 136.125 167.8125 C 136.070312 167.8125 136.015625 167.8125 135.960938 167.8125 C 130.816406 167.722656 126.703125 163.464844 126.789062 158.320312 L 127.15625 132.96875 C 127.160156 132.777344 127.3125 132.625 127.503906 132.625 L 145.550781 132.660156 C 145.640625 132.664062 145.730469 132.699219 145.796875 132.765625 C 145.859375 132.832031 145.898438 132.921875 145.894531 133.015625 L 145.453125 158.644531 C 145.363281 163.734375 141.195312 167.8125 136.125 167.8125 " fill-opacity="1" fill-rule="nonzero"/><path fill="#fed101" d="M 142.570312 152.226562 L 126.503906 136.152344 C 119.976562 129.621094 111.121094 125.953125 101.886719 125.953125 L 91.484375 125.953125 C 84.3125 125.953125 77.773438 130.058594 74.660156 136.519531 L 66.742188 152.9375 C 64.5625 157.476562 65.878906 164.15625 70.417969 166.335938 C 73.488281 167.8125 76.054688 167.699219 78.902344 166.335938 L 77.855469 178.136719 L 120.3125 172.546875 L 117.925781 155.132812 L 129.863281 164.933594 L 142.570312 152.226562 " fill-opacity="1" fill-rule="nonzero"/><path fill="#000000" d="M 129.863281 165.277344 C 129.785156 165.277344 129.707031 165.253906 129.644531 165.199219 L 110.445312 149.4375 C 110.296875 149.316406 110.277344 149.097656 110.398438 148.953125 C 110.519531 148.804688 110.738281 148.78125 110.886719 148.902344 L 130.082031 164.664062 C 130.230469 164.785156 130.253906 165.007812 130.132812 165.152344 C 130.0625 165.238281 129.964844 165.277344 129.863281 165.277344 " fill-opacity="1" fill-rule="nonzero"/><path fill="#000000" d="M 142.570312 152.570312 C 142.484375 152.570312 142.394531 152.535156 142.328125 152.46875 L 126.257812 136.394531 C 119.65625 129.789062 111.128906 126.296875 101.601562 126.296875 C 101.410156 126.296875 101.257812 126.144531 101.257812 125.953125 C 101.257812 125.761719 101.410156 125.605469 101.601562 125.605469 C 111.316406 125.605469 120.011719 129.167969 126.75 135.90625 L 142.816406 151.980469 C 142.953125 152.117188 142.953125 152.335938 142.816406 152.46875 C 142.75 152.535156 142.660156 152.570312 142.570312 152.570312 " fill-opacity="1" fill-rule="nonzero"/><path fill="#000000" d="M 78.945312 166.683594 C 78.933594 166.683594 78.921875 166.683594 78.910156 166.683594 C 78.722656 166.664062 78.582031 166.492188 78.601562 166.304688 L 81.128906 140.730469 C 81.148438 140.542969 81.320312 140.402344 81.507812 140.421875 C 81.699219 140.441406 81.835938 140.609375 81.820312 140.800781 L 79.289062 166.375 C 79.273438 166.550781 79.121094 166.683594 78.945312 166.683594 " fill-opacity="1" fill-rule="nonzero"/><path fill="#000000" d="M 81.398438 141.535156 L 75.628906 167.34375 C 75.628906 167.34375 76.503906 167.269531 77.421875 166.964844 C 78.074219 166.753906 78.902344 166.335938 78.902344 166.335938 L 81.398438 141.535156 " fill-opacity="1" fill-rule="nonzero"/><path fill="#fda4ff" d="M 105.09375 116.035156 C 105.09375 119.222656 105.300781 123.644531 102.113281 123.644531 C 98.925781 123.644531 93.550781 119.222656 93.550781 116.035156 C 93.550781 112.847656 96.136719 110.261719 99.324219 110.261719 C 102.511719 110.261719 105.09375 112.847656 105.09375 116.035156 " fill-opacity="1" fill-rule="nonzero"/><path fill="#000000" d="M 107.214844 114.621094 C 106.332031 111.683594 103.609375 109.539062 100.382812 109.539062 C 97.15625 109.539062 94.53125 111.511719 93.726562 114.621094 L 107.214844 114.621094 " fill-opacity="1" fill-rule="nonzero"/><path fill="#fda4ff" d="M 101.390625 125.953125 L 94.714844 125.953125 L 94.714844 116.035156 L 101.390625 116.035156 L 101.390625 125.953125 " fill-opacity="1" fill-rule="nonzero"/><path fill="#000000" d="M 101.390625 126.398438 C 101.199219 126.398438 101.046875 126.246094 101.046875 126.054688 L 101.046875 120.46875 C 101.046875 120.273438 101.199219 120.121094 101.390625 120.121094 C 101.582031 120.121094 101.738281 120.273438 101.738281 120.46875 L 101.738281 126.054688 C 101.738281 126.246094 101.582031 126.398438 101.390625 126.398438 " fill-opacity="1" fill-rule="nonzero"/><path fill="#000000" d="M 288.96875 157.382812 L 214.152344 157.382812 L 214.152344 106.226562 L 288.96875 106.226562 L 288.96875 157.382812 " fill-opacity="1" fill-rule="nonzero"/><path fill="#4ada85" d="M 284.613281 152.882812 L 209.796875 152.882812 L 209.796875 105.320312 L 284.613281 105.320312 L 284.613281 152.882812 " fill-opacity="1" fill-rule="nonzero"/><path fill="#ffffff" d="M 273.925781 118.757812 L 221.957031 118.757812 L 221.957031 114.851562 L 273.925781 114.851562 L 273.925781 118.757812 " fill-opacity="1" fill-rule="nonzero"/><path fill="#ffffff" d="M 273.925781 128.457031 L 221.957031 128.457031 L 221.957031 124.550781 L 273.925781 124.550781 L 273.925781 128.457031 " fill-opacity="1" fill-rule="nonzero"/><path fill="#ffffff" d="M 265.523438 139 L 221.957031 139 L 221.957031 135.09375 L 265.523438 135.09375 L 265.523438 139 " fill-opacity="1" fill-rule="nonzero"/><path fill="#000000" d="M 288.96875 220.007812 L 214.152344 220.007812 L 214.152344 168.847656 L 288.96875 168.847656 L 288.96875 220.007812 " fill-opacity="1" fill-rule="nonzero"/><path fill="#4ada85" d="M 284.613281 215.503906 L 209.796875 215.503906 L 209.796875 167.945312 L 284.613281 167.945312 L 284.613281 215.503906 " fill-opacity="1" fill-rule="nonzero"/><path fill="#ffffff" d="M 273.925781 181.378906 L 221.957031 181.378906 L 221.957031 177.472656 L 273.925781 177.472656 L 273.925781 181.378906 " fill-opacity="1" fill-rule="nonzero"/><path fill="#ffffff" d="M 273.925781 191.082031 L 221.957031 191.082031 L 221.957031 187.175781 L 273.925781 187.175781 L 273.925781 191.082031 " fill-opacity="1" fill-rule="nonzero"/><path fill="#ffffff" d="M 265.523438 201.621094 L 221.957031 201.621094 L 221.957031 197.714844 L 265.523438 197.714844 L 265.523438 201.621094 " fill-opacity="1" fill-rule="nonzero"/><path fill="#000000" d="M 288.96875 282.605469 L 214.152344 282.605469 L 214.152344 231.449219 L 288.96875 231.449219 L 288.96875 282.605469 " fill-opacity="1" fill-rule="nonzero"/><path fill="#4ada85" d="M 284.613281 278.105469 L 209.796875 278.105469 L 209.796875 230.542969 L 284.613281 230.542969 L 284.613281 278.105469 " fill-opacity="1" fill-rule="nonzero"/><path fill="#ffffff" d="M 273.925781 243.980469 L 221.957031 243.980469 L 221.957031 240.074219 L 273.925781 240.074219 L 273.925781 243.980469 " fill-opacity="1" fill-rule="nonzero"/><path fill="#ffffff" d="M 273.925781 253.679688 L 221.957031 253.679688 L 221.957031 249.773438 L 273.925781 249.773438 L 273.925781 253.679688 " fill-opacity="1" fill-rule="nonzero"/><path fill="#ffffff" d="M 265.523438 264.222656 L 221.957031 264.222656 L 221.957031 260.316406 L 265.523438 260.316406 L 265.523438 264.222656 " fill-opacity="1" fill-rule="nonzero"/><g fill="#000000" fill-opacity="1"><g transform="translate(89.636717, 339.376559)"><g><path d="M 15.9375 -33.296875 C 20.863281 -33.296875 25.191406 -32.070312 28.921875 -29.625 L 25.765625 -23.09375 C 24.046875 -24.09375 22.195312 -24.914062 20.21875 -25.5625 C 18.25 -26.207031 16.585938 -26.53125 15.234375 -26.53125 C 12.816406 -26.53125 11.609375 -25.726562 11.609375 -24.125 C 11.609375 -23.09375 12.203125 -22.257812 13.390625 -21.625 C 14.585938 -21 16.039062 -20.457031 17.75 -20 C 19.457031 -19.550781 21.164062 -19.003906 22.875 -18.359375 C 24.582031 -17.722656 26.03125 -16.679688 27.21875 -15.234375 C 28.414062 -13.796875 29.015625 -11.976562 29.015625 -9.78125 C 29.015625 -6.613281 27.773438 -4.144531 25.296875 -2.375 C 22.828125 -0.601562 19.675781 0.28125 15.84375 0.28125 C 13.113281 0.28125 10.414062 -0.1875 7.75 -1.125 C 5.09375 -2.070312 2.773438 -3.359375 0.796875 -4.984375 L 4.046875 -11.421875 C 5.703125 -9.984375 7.660156 -8.800781 9.921875 -7.875 C 12.179688 -6.945312 14.1875 -6.484375 15.9375 -6.484375 C 17.289062 -6.484375 18.34375 -6.726562 19.09375 -7.21875 C 19.84375 -7.707031 20.21875 -8.421875 20.21875 -9.359375 C 20.21875 -10.265625 19.785156 -11.023438 18.921875 -11.640625 C 18.066406 -12.253906 16.992188 -12.707031 15.703125 -13 C 14.421875 -13.300781 13.023438 -13.703125 11.515625 -14.203125 C 10.015625 -14.703125 8.617188 -15.25 7.328125 -15.84375 C 6.046875 -16.445312 4.972656 -17.394531 4.109375 -18.6875 C 3.253906 -19.988281 2.828125 -21.550781 2.828125 -23.375 C 2.828125 -26.382812 4.023438 -28.789062 6.421875 -30.59375 C 8.816406 -32.394531 11.988281 -33.296875 15.9375 -33.296875 Z M 15.9375 -33.296875 "/></g></g></g><g fill="#000000" fill-opacity="1"><g transform="translate(119.914727, 339.376559)"><g><path d="M 20.265625 -10.625 L 20.265625 0 L 11.953125 0 L 11.953125 -10.390625 L -0.234375 -32.921875 L 8.140625 -32.921875 L 16.078125 -18.578125 L 23.84375 -32.921875 L 32.21875 -32.921875 Z M 20.265625 -10.625 "/></g></g></g><g fill="#000000" fill-opacity="1"><g transform="translate(151.885294, 339.376559)"><g><path d="M 15.9375 -33.296875 C 20.863281 -33.296875 25.191406 -32.070312 28.921875 -29.625 L 25.765625 -23.09375 C 24.046875 -24.09375 22.195312 -24.914062 20.21875 -25.5625 C 18.25 -26.207031 16.585938 -26.53125 15.234375 -26.53125 C 12.816406 -26.53125 11.609375 -25.726562 11.609375 -24.125 C 11.609375 -23.09375 12.203125 -22.257812 13.390625 -21.625 C 14.585938 -21 16.039062 -20.457031 17.75 -20 C 19.457031 -19.550781 21.164062 -19.003906 22.875 -18.359375 C 24.582031 -17.722656 26.03125 -16.679688 27.21875 -15.234375 C 28.414062 -13.796875 29.015625 -11.976562 29.015625 -9.78125 C 29.015625 -6.613281 27.773438 -4.144531 25.296875 -2.375 C 22.828125 -0.601562 19.675781 0.28125 15.84375 0.28125 C 13.113281 0.28125 10.414062 -0.1875 7.75 -1.125 C 5.09375 -2.070312 2.773438 -3.359375 0.796875 -4.984375 L 4.046875 -11.421875 C 5.703125 -9.984375 7.660156 -8.800781 9.921875 -7.875 C 12.179688 -6.945312 14.1875 -6.484375 15.9375 -6.484375 C 17.289062 -6.484375 18.34375 -6.726562 19.09375 -7.21875 C 19.84375 -7.707031 20.21875 -8.421875 20.21875 -9.359375 C 20.21875 -10.265625 19.785156 -11.023438 18.921875 -11.640625 C 18.066406 -12.253906 16.992188 -12.707031 15.703125 -13 C 14.421875 -13.300781 13.023438 -13.703125 11.515625 -14.203125 C 10.015625 -14.703125 8.617188 -15.25 7.328125 -15.84375 C 6.046875 -16.445312 4.972656 -17.394531 4.109375 -18.6875 C 3.253906 -19.988281 2.828125 -21.550781 2.828125 -23.375 C 2.828125 -26.382812 4.023438 -28.789062 6.421875 -30.59375 C 8.816406 -32.394531 11.988281 -33.296875 15.9375 -33.296875 Z M 15.9375 -33.296875 "/></g></g></g><g fill="#000000" fill-opacity="1"><g transform="translate(182.163304, 339.376559)"><g><path d="M 28.453125 -26.203125 L 18.53125 -26.203125 L 18.53125 0 L 10.15625 0 L 10.15625 -26.203125 L 0.328125 -26.203125 L 0.328125 -32.96875 L 28.453125 -32.96875 Z M 28.453125 -26.203125 "/></g></g></g><g fill="#000000" fill-opacity="1"><g transform="translate(210.889803, 339.376559)"><g><path d="M 29.0625 -26.34375 L 11.65625 -26.34375 L 11.65625 -19.796875 L 27.375 -19.796875 L 27.375 -13.21875 L 11.65625 -13.21875 L 11.65625 -6.578125 L 29.578125 -6.578125 L 29.578125 0 L 3.296875 0 L 3.296875 -32.921875 L 29.0625 -32.921875 Z M 29.0625 -26.34375 "/></g></g></g><g fill="#000000" fill-opacity="1"><g transform="translate(242.578285, 339.376559)"><g><path d="M 39.453125 0 L 32.078125 0 L 32.03125 -21.40625 L 24.125 -3.296875 L 18.671875 -3.296875 L 10.765625 -21.40625 L 10.765625 0 L 3.296875 0 L 3.296875 -32.96875 L 12.46875 -32.96875 L 21.40625 -13.359375 L 30.328125 -32.96875 L 39.453125 -32.96875 Z M 39.453125 0 "/></g></g></g><g fill="#000000" fill-opacity="1"><g transform="translate(139.205269, 362.444009)"><g><path d="M 1.375 0 L 1.375 -10.109375 L 4.046875 -10.109375 C 5.171875 -10.109375 6.148438 -9.894531 6.984375 -9.46875 C 7.828125 -9.050781 8.472656 -8.457031 8.921875 -7.6875 C 9.378906 -6.925781 9.609375 -6.046875 9.609375 -5.046875 C 9.609375 -4.046875 9.378906 -3.160156 8.921875 -2.390625 C 8.472656 -1.628906 7.828125 -1.039062 6.984375 -0.625 C 6.148438 -0.207031 5.171875 0 4.046875 0 Z M 4.046875 -1.078125 C 4.941406 -1.078125 5.71875 -1.238281 6.375 -1.5625 C 7.03125 -1.894531 7.535156 -2.363281 7.890625 -2.96875 C 8.242188 -3.570312 8.421875 -4.265625 8.421875 -5.046875 C 8.421875 -5.835938 8.242188 -6.535156 7.890625 -7.140625 C 7.535156 -7.742188 7.03125 -8.207031 6.375 -8.53125 C 5.71875 -8.851562 4.941406 -9.015625 4.046875 -9.015625 L 2.53125 -9.015625 L 2.53125 -1.078125 Z M 4.046875 -1.078125 "/></g></g></g><g fill="#000000" fill-opacity="1"><g transform="translate(158.264592, 362.444009)"><g><path d="M 2.53125 -4.6875 L 2.53125 -1.078125 L 6.859375 -1.078125 L 6.859375 0 L 1.375 0 L 1.375 -10.109375 L 6.71875 -10.109375 L 6.71875 -9.015625 L 2.53125 -9.015625 L 2.53125 -5.78125 L 6.5625 -5.78125 L 6.5625 -4.6875 Z M 2.53125 -4.6875 "/></g></g></g><g fill="#000000" fill-opacity="1"><g transform="translate(174.712842, 362.444009)"><g><path d="M 4.140625 0.140625 C 3.453125 0.140625 2.851562 0.0078125 2.34375 -0.25 C 1.832031 -0.507812 1.4375 -0.867188 1.15625 -1.328125 C 0.882812 -1.785156 0.738281 -2.304688 0.71875 -2.890625 L 1.875 -2.890625 C 1.894531 -2.316406 2.101562 -1.847656 2.5 -1.484375 C 2.894531 -1.117188 3.441406 -0.9375 4.140625 -0.9375 C 4.765625 -0.9375 5.257812 -1.082031 5.625 -1.375 C 6 -1.675781 6.1875 -2.082031 6.1875 -2.59375 C 6.1875 -2.988281 6.082031 -3.3125 5.875 -3.5625 C 5.675781 -3.820312 5.421875 -4.023438 5.109375 -4.171875 C 4.804688 -4.316406 4.394531 -4.472656 3.875 -4.640625 C 3.238281 -4.859375 2.734375 -5.0625 2.359375 -5.25 C 1.984375 -5.4375 1.660156 -5.71875 1.390625 -6.09375 C 1.117188 -6.46875 0.984375 -6.960938 0.984375 -7.578125 C 0.984375 -8.078125 1.117188 -8.53125 1.390625 -8.9375 C 1.660156 -9.34375 2.03125 -9.660156 2.5 -9.890625 C 2.976562 -10.128906 3.515625 -10.25 4.109375 -10.25 C 4.679688 -10.25 5.195312 -10.125 5.65625 -9.875 C 6.125 -9.632812 6.5 -9.296875 6.78125 -8.859375 C 7.0625 -8.429688 7.207031 -7.957031 7.21875 -7.4375 L 6.0625 -7.4375 C 6.039062 -7.945312 5.84375 -8.363281 5.46875 -8.6875 C 5.09375 -9.007812 4.628906 -9.171875 4.078125 -9.171875 C 3.523438 -9.171875 3.070312 -9.035156 2.71875 -8.765625 C 2.363281 -8.492188 2.1875 -8.097656 2.1875 -7.578125 C 2.1875 -7.210938 2.28125 -6.910156 2.46875 -6.671875 C 2.664062 -6.429688 2.910156 -6.242188 3.203125 -6.109375 C 3.503906 -5.972656 3.914062 -5.8125 4.4375 -5.625 C 5.0625 -5.425781 5.570312 -5.222656 5.96875 -5.015625 C 6.363281 -4.816406 6.695312 -4.519531 6.96875 -4.125 C 7.25 -3.738281 7.390625 -3.226562 7.390625 -2.59375 C 7.390625 -2.070312 7.25 -1.601562 6.96875 -1.1875 C 6.6875 -0.769531 6.296875 -0.441406 5.796875 -0.203125 C 5.304688 0.0234375 4.753906 0.140625 4.140625 0.140625 Z M 4.140625 0.140625 "/></g></g></g><g fill="#000000" fill-opacity="1"><g transform="translate(191.478461, 362.444009)"><g><path d="M 2.59375 0 L 1.4375 0 L 1.4375 -10.109375 L 2.59375 -10.109375 Z M 2.59375 0 "/></g></g></g><g fill="#000000" fill-opacity="1"><g transform="translate(204.176001, 362.444009)"><g><path d="M 5.640625 -5.34375 L 10.984375 -5.34375 L 10.984375 -4.90625 C 10.984375 -3.988281 10.769531 -3.144531 10.34375 -2.375 C 9.925781 -1.613281 9.335938 -1.003906 8.578125 -0.546875 C 7.828125 -0.0859375 6.96875 0.140625 6 0.140625 C 5.050781 0.140625 4.175781 -0.0859375 3.375 -0.546875 C 2.582031 -1.003906 1.953125 -1.632812 1.484375 -2.4375 C 1.023438 -3.238281 0.796875 -4.109375 0.796875 -5.046875 C 0.796875 -5.992188 1.023438 -6.863281 1.484375 -7.65625 C 1.953125 -8.457031 2.582031 -9.085938 3.375 -9.546875 C 4.175781 -10.015625 5.050781 -10.25 6 -10.25 C 7.101562 -10.25 8.070312 -9.953125 8.90625 -9.359375 C 9.738281 -8.773438 10.359375 -7.988281 10.765625 -7 L 9.546875 -7 C 9.210938 -7.664062 8.734375 -8.191406 8.109375 -8.578125 C 7.484375 -8.972656 6.78125 -9.171875 6 -9.171875 C 5.269531 -9.171875 4.597656 -8.988281 3.984375 -8.625 C 3.378906 -8.257812 2.894531 -7.757812 2.53125 -7.125 C 2.175781 -6.5 2 -5.804688 2 -5.046875 C 2 -4.285156 2.175781 -3.59375 2.53125 -2.96875 C 2.894531 -2.34375 3.378906 -1.847656 3.984375 -1.484375 C 4.597656 -1.117188 5.269531 -0.9375 6 -0.9375 C 6.664062 -0.9375 7.269531 -1.070312 7.8125 -1.34375 C 8.363281 -1.625 8.804688 -2.015625 9.140625 -2.515625 C 9.484375 -3.015625 9.691406 -3.597656 9.765625 -4.265625 L 5.640625 -4.265625 Z M 5.640625 -5.34375 "/></g></g></g><g fill="#000000" fill-opacity="1"><g transform="translate(224.38939, 362.444009)"><g><path d="M 8.90625 -2.140625 L 8.90625 -10.109375 L 10.03125 -10.109375 L 10.03125 0 L 9.3125 0 L 2.5 -7.96875 L 2.5 0 L 1.375 0 L 1.375 -10.109375 L 2.09375 -10.109375 Z M 8.90625 -2.140625 "/></g></g></g></svg>